<svg width="29" height="32" viewBox="0 0 29 32" fill="none" xmlns="http://www.w3.org/2000/svg">
<path d="M8.96158 14.7692C7.32947 14.7692 5.76422 14.1209 4.61015 12.9668C3.45608 11.8127 2.80773 10.2475 2.80773 8.61538V3.69231C2.80773 3.36589 2.9374 3.05284 3.16821 2.82202C3.39903 2.59121 3.71208 2.46154 4.0385 2.46154H5.26927C5.59569 2.46154 5.90874 2.33187 6.13955 2.10105C6.37037 1.87024 6.50004 1.55719 6.50004 1.23077C6.50004 0.904349 6.37037 0.591298 6.13955 0.360484C5.90874 0.12967 5.59569 0 5.26927 0H4.0385C3.05924 0 2.12009 0.38901 1.42764 1.08145C0.735201 1.77389 0.346191 2.71305 0.346191 3.69231V8.61538C0.347773 10.0058 0.686834 11.3751 1.33425 12.6056C1.98167 13.8362 2.9181 14.8912 4.06311 15.68C5.16321 16.6499 6.05537 17.8326 6.68574 19.1568C7.31611 20.481 7.67162 21.9192 7.73081 23.3846C7.73081 25.6696 8.6385 27.8609 10.2542 29.4766C11.8699 31.0923 14.0613 32 16.3462 32C18.6311 32 20.8225 31.0923 22.4382 29.4766C24.0539 27.8609 24.9616 25.6696 24.9616 23.3846V21.9815C26.1218 21.682 27.1329 20.9696 27.8054 19.9778C28.4779 18.9861 28.7656 17.7832 28.6146 16.5945C28.4637 15.4058 27.8843 14.3129 26.9852 13.5208C26.0862 12.7287 24.9291 12.2917 23.7308 12.2917C22.5326 12.2917 21.3755 12.7287 20.4764 13.5208C19.5773 14.3129 18.998 15.4058 18.847 16.5945C18.696 17.7832 18.9837 18.9861 19.6562 19.9778C20.3287 20.9696 21.3398 21.682 22.5 21.9815V23.3846C22.5 25.0167 21.8517 26.582 20.6976 27.736C19.5435 28.8901 17.9783 29.5385 16.3462 29.5385C14.7141 29.5385 13.1488 28.8901 11.9948 27.736C10.8407 26.582 10.1923 25.0167 10.1923 23.3846C10.2546 21.9174 10.614 20.4781 11.2487 19.1538C11.8833 17.8295 12.7801 16.6477 13.8847 15.68C15.0251 14.8884 15.9568 13.8322 16.5998 12.6019C17.2428 11.3715 17.5781 10.0036 17.577 8.61538V3.69231C17.577 2.71305 17.188 1.77389 16.4955 1.08145C15.8031 0.38901 14.8639 0 13.8847 0H12.6539C12.3275 0 12.0144 0.12967 11.7836 0.360484C11.5528 0.591298 11.4231 0.904349 11.4231 1.23077C11.4231 1.55719 11.5528 1.87024 11.7836 2.10105C12.0144 2.33187 12.3275 2.46154 12.6539 2.46154H13.8847C14.2111 2.46154 14.5241 2.59121 14.7549 2.82202C14.9858 3.05284 15.1154 3.36589 15.1154 3.69231V8.61538C15.1154 9.42352 14.9562 10.2237 14.647 10.9704C14.3377 11.717 13.8844 12.3954 13.313 12.9668C12.7416 13.5382 12.0632 13.9915 11.3166 14.3008C10.5699 14.6101 9.76971 14.7692 8.96158 14.7692ZM23.7308 19.6923C23.078 19.6923 22.4519 19.433 21.9902 18.9713C21.5286 18.5097 21.2693 17.8836 21.2693 17.2308C21.2693 16.5779 21.5286 15.9518 21.9902 15.4902C22.4519 15.0286 23.078 14.7692 23.7308 14.7692C24.3836 14.7692 25.0098 15.0286 25.4714 15.4902C25.933 15.9518 26.1923 16.5779 26.1923 17.2308C26.1923 17.8836 25.933 18.5097 25.4714 18.9713C25.0098 19.433 24.3836 19.6923 23.7308 19.6923Z" fill="#FBFBFE"/>
</svg>
