<svg width="360" height="49" viewBox="0 0 360 49" fill="none" xmlns="http://www.w3.org/2000/svg">
<path d="M265.243 0.500732L123.922 38.9291L-0.250488 26.6958V48.0668H315.563V9.88877L265.243 0.500732Z" fill="#1B4D56"/>
<path d="M164.972 40.9711L-7 24.5211L-6.87261 50H360V12.2763L308.791 3L164.972 40.9711Z" fill="#1B4D56" stroke="#F6EBDC" stroke-width="0.500695"/>
<path d="M207.129 39.976C206.543 39.976 206.044 39.856 205.633 39.616C205.228 39.376 204.919 39.0587 204.705 38.664C204.492 38.264 204.385 37.824 204.385 37.344C204.385 36.9867 204.447 36.6427 204.569 36.312C204.697 35.9813 204.881 35.6853 205.121 35.424C205.361 35.1573 205.649 34.9467 205.985 34.792C206.327 34.6373 206.708 34.56 207.129 34.56C207.545 34.56 207.921 34.6293 208.257 34.768C208.599 34.9013 208.887 35.0907 209.121 35.336C209.361 35.576 209.545 35.8533 209.673 36.168C209.801 36.4827 209.865 36.8187 209.865 37.176C209.865 37.5333 209.804 37.88 209.681 38.216C209.559 38.552 209.377 38.8533 209.137 39.12C208.903 39.3813 208.615 39.5893 208.273 39.744C207.937 39.8987 207.556 39.976 207.129 39.976ZM207.161 38.784C206.847 38.784 206.569 38.7147 206.329 38.576C206.095 38.4373 205.911 38.2507 205.777 38.016C205.644 37.7813 205.577 37.52 205.577 37.232C205.577 36.928 205.649 36.6613 205.793 36.432C205.943 36.1973 206.137 36.016 206.377 35.888C206.617 35.76 206.873 35.696 207.145 35.696C207.305 35.696 207.439 35.712 207.545 35.744C207.652 35.7707 207.745 35.7973 207.825 35.824C207.884 35.8453 207.94 35.864 207.993 35.88C208.047 35.8907 208.103 35.896 208.161 35.896C208.188 35.896 208.215 35.8933 208.241 35.888C208.268 35.8827 208.295 35.8773 208.321 35.872L208.329 35.888C208.319 35.9573 208.313 36.0507 208.313 36.168C208.313 36.2853 208.34 36.4453 208.393 36.648H208.233C208.164 36.456 208.041 36.2827 207.865 36.128C207.689 35.968 207.455 35.888 207.161 35.888C206.852 35.888 206.609 36.0107 206.433 36.256C206.263 36.496 206.177 36.816 206.177 37.216C206.177 37.6267 206.26 37.9547 206.425 38.2C206.591 38.44 206.836 38.56 207.161 38.56C207.396 38.56 207.604 38.5147 207.785 38.424C207.967 38.328 208.116 38.1253 208.233 37.816H208.401C208.375 37.96 208.348 38.1013 208.321 38.24C208.295 38.3733 208.281 38.5013 208.281 38.624H208.241C208.183 38.624 208.111 38.632 208.025 38.648C207.945 38.6587 207.857 38.6747 207.761 38.696C207.66 38.7173 207.553 38.7387 207.441 38.76C207.335 38.776 207.241 38.784 207.161 38.784ZM207.145 39.744C207.599 39.744 208.007 39.6347 208.369 39.416C208.732 39.192 209.02 38.8907 209.233 38.512C209.447 38.128 209.553 37.6933 209.553 37.208C209.553 36.8613 209.492 36.5413 209.369 36.248C209.247 35.9547 209.073 35.6987 208.849 35.48C208.631 35.2613 208.375 35.0907 208.081 34.968C207.788 34.8453 207.468 34.784 207.121 34.784C206.78 34.784 206.46 34.8533 206.161 34.992C205.868 35.1307 205.612 35.32 205.393 35.56C205.18 35.8 205.012 36.072 204.889 36.376C204.767 36.68 204.705 36.9947 204.705 37.32C204.705 37.816 204.812 38.2453 205.025 38.608C205.239 38.9707 205.529 39.2507 205.897 39.448C206.271 39.6453 206.687 39.744 207.145 39.744ZM212.582 40V39.904L213.678 38.68C213.966 38.36 214.192 38.0773 214.358 37.832C214.528 37.5813 214.654 37.3547 214.734 37.152C214.819 36.9493 214.875 36.7573 214.902 36.576C214.928 36.3947 214.942 36.2133 214.942 36.032C214.942 35.6373 214.854 35.3307 214.678 35.112C214.507 34.888 214.24 34.776 213.878 34.776C213.766 34.776 213.654 34.7973 213.542 34.84C213.43 34.8773 213.336 34.9333 213.262 35.008C213.187 35.0773 213.15 35.1627 213.15 35.264C213.15 35.3013 213.174 35.344 213.222 35.392C213.248 35.424 213.278 35.464 213.31 35.512C213.342 35.56 213.358 35.6267 213.358 35.712C213.358 35.8187 213.32 35.904 213.246 35.968C213.171 36.032 213.075 36.064 212.958 36.064C212.867 36.064 212.782 36.032 212.702 35.968C212.627 35.8987 212.59 35.792 212.59 35.648C212.59 35.408 212.662 35.208 212.806 35.048C212.955 34.8827 213.144 34.7573 213.374 34.672C213.608 34.5867 213.851 34.544 214.102 34.544C214.368 34.544 214.622 34.5947 214.862 34.696C215.107 34.7973 215.307 34.9547 215.462 35.168C215.616 35.3813 215.694 35.6533 215.694 35.984C215.694 36.3307 215.619 36.648 215.47 36.936C215.326 37.224 215.126 37.5147 214.87 37.808C214.619 38.096 214.334 38.4213 214.014 38.784L213.502 39.36H215.046C215.195 39.36 215.296 39.3333 215.35 39.28C215.403 39.2267 215.462 39.104 215.526 38.912L215.614 38.64H215.758L215.534 40H212.582ZM218.566 40.064C218.246 40.064 217.969 39.992 217.734 39.848C217.505 39.6987 217.313 39.496 217.158 39.24C217.009 38.9787 216.897 38.68 216.822 38.344C216.753 38.008 216.718 37.648 216.718 37.264C216.718 36.752 216.782 36.2907 216.91 35.88C217.044 35.4693 217.246 35.144 217.518 34.904C217.79 34.6587 218.14 34.536 218.566 34.536C218.993 34.536 219.342 34.6587 219.614 34.904C219.886 35.144 220.086 35.4693 220.214 35.88C220.348 36.2907 220.414 36.752 220.414 37.264C220.414 37.648 220.377 38.008 220.302 38.344C220.233 38.68 220.121 38.9787 219.966 39.24C219.817 39.496 219.625 39.6987 219.39 39.848C219.161 39.992 218.886 40.064 218.566 40.064ZM218.566 39.88C218.812 39.88 219.006 39.8107 219.15 39.672C219.3 39.5333 219.412 39.344 219.486 39.104C219.561 38.8587 219.612 38.5787 219.638 38.264C219.665 37.9493 219.678 37.616 219.678 37.264C219.678 36.912 219.665 36.584 219.638 36.28C219.612 35.9707 219.561 35.7013 219.486 35.472C219.412 35.2373 219.3 35.056 219.15 34.928C219.001 34.7947 218.806 34.728 218.566 34.728C218.326 34.728 218.132 34.7947 217.982 34.928C217.833 35.056 217.721 35.2373 217.646 35.472C217.572 35.7013 217.521 35.9707 217.494 36.28C217.468 36.584 217.454 36.912 217.454 37.264C217.454 37.616 217.468 37.9493 217.494 38.264C217.521 38.5787 217.572 38.8587 217.646 39.104C217.721 39.344 217.83 39.5333 217.974 39.672C218.124 39.8107 218.321 39.88 218.566 39.88ZM221.215 40V39.904L222.311 38.68C222.599 38.36 222.825 38.0773 222.991 37.832C223.161 37.5813 223.287 37.3547 223.367 37.152C223.452 36.9493 223.508 36.7573 223.535 36.576C223.561 36.3947 223.575 36.2133 223.575 36.032C223.575 35.6373 223.487 35.3307 223.311 35.112C223.14 34.888 222.873 34.776 222.511 34.776C222.399 34.776 222.287 34.7973 222.175 34.84C222.063 34.8773 221.969 34.9333 221.895 35.008C221.82 35.0773 221.783 35.1627 221.783 35.264C221.783 35.3013 221.807 35.344 221.855 35.392C221.881 35.424 221.911 35.464 221.943 35.512C221.975 35.56 221.991 35.6267 221.991 35.712C221.991 35.8187 221.953 35.904 221.879 35.968C221.804 36.032 221.708 36.064 221.591 36.064C221.5 36.064 221.415 36.032 221.335 35.968C221.26 35.8987 221.223 35.792 221.223 35.648C221.223 35.408 221.295 35.208 221.439 35.048C221.588 34.8827 221.777 34.7573 222.007 34.672C222.241 34.5867 222.484 34.544 222.735 34.544C223.001 34.544 223.255 34.5947 223.495 34.696C223.74 34.7973 223.94 34.9547 224.095 35.168C224.249 35.3813 224.327 35.6533 224.327 35.984C224.327 36.3307 224.252 36.648 224.103 36.936C223.959 37.224 223.759 37.5147 223.503 37.808C223.252 38.096 222.967 38.4213 222.647 38.784L222.135 39.36H223.679C223.828 39.36 223.929 39.3333 223.983 39.28C224.036 39.2267 224.095 39.104 224.159 38.912L224.247 38.64H224.391L224.167 40H221.215ZM226.391 40V39.856L226.799 39.784C227.018 39.7413 227.156 39.6933 227.215 39.64C227.279 39.5867 227.311 39.4773 227.311 39.312V35.448L227.455 35.496L225.503 38.2L225.431 38.008H228.303C228.415 38.008 228.492 37.992 228.535 37.96C228.578 37.928 228.615 37.8613 228.647 37.76L228.759 37.416H228.903L228.703 38.568H225.071V38.424L227.943 34.472H227.999V39.312C227.999 39.4773 228.028 39.5867 228.087 39.64C228.151 39.6933 228.292 39.7413 228.511 39.784L228.919 39.856V40H226.391ZM229.662 41.2V41.064C229.902 41.0267 230.094 40.9253 230.238 40.76C230.388 40.6 230.462 40.4053 230.462 40.176C230.462 40.0107 230.393 39.8693 230.254 39.752C230.121 39.6347 229.945 39.56 229.726 39.528V39.344C229.833 39.2747 229.918 39.2027 229.982 39.128C230.052 39.048 230.116 38.9413 230.174 38.808C230.409 38.8933 230.596 39.0187 230.734 39.184C230.873 39.344 230.942 39.552 230.942 39.808C230.942 40.0373 230.889 40.2533 230.782 40.456C230.676 40.664 230.526 40.8347 230.334 40.968C230.148 41.1013 229.924 41.1787 229.662 41.2ZM237.097 40.048L235.129 35.712L234.897 39.264C234.891 39.3973 234.926 39.4987 235.001 39.568C235.075 39.632 235.185 39.6773 235.329 39.704L235.913 39.824V40H233.713V39.824L234.177 39.72C234.273 39.6987 234.35 39.672 234.409 39.64C234.473 39.6027 234.521 39.5547 234.553 39.496C234.585 39.4373 234.603 39.36 234.609 39.264L234.849 35.352C234.859 35.1813 234.835 35.0693 234.777 35.016C234.723 34.9627 234.603 34.9173 234.417 34.88L234.009 34.792V34.616L235.889 34.624L237.577 38.328L239.073 34.616H241.009V34.792L240.601 34.88C240.419 34.9173 240.299 34.9627 240.241 35.016C240.187 35.0693 240.163 35.1813 240.169 35.352L240.329 39.264C240.334 39.376 240.347 39.4613 240.369 39.52C240.39 39.5787 240.43 39.624 240.489 39.656C240.547 39.6827 240.638 39.7093 240.761 39.736L241.169 39.824V40H238.369V39.824L238.777 39.736C238.963 39.6933 239.083 39.6453 239.137 39.592C239.195 39.5387 239.219 39.4293 239.209 39.264L239.033 35.528L237.217 40.048H237.097ZM243.214 40.064C242.873 40.064 242.569 39.984 242.302 39.824C242.041 39.664 241.833 39.448 241.678 39.176C241.529 38.904 241.454 38.6027 241.454 38.272C241.454 37.8987 241.534 37.5707 241.694 37.288C241.859 37.0053 242.081 36.784 242.358 36.624C242.641 36.464 242.958 36.384 243.31 36.384C243.593 36.384 243.838 36.4507 244.046 36.584C244.259 36.712 244.425 36.8907 244.542 37.12C244.659 37.344 244.718 37.5973 244.718 37.88C244.718 37.9333 244.702 37.9813 244.67 38.024C244.643 38.0613 244.598 38.08 244.534 38.08H241.942V37.792L243.678 37.72C243.753 37.72 243.79 37.664 243.79 37.552C243.79 37.2693 243.742 37.048 243.646 36.888C243.55 36.7227 243.422 36.64 243.262 36.64C243.017 36.64 242.825 36.7733 242.686 37.04C242.547 37.3067 242.478 37.656 242.478 38.088C242.478 38.3867 242.531 38.64 242.638 38.848C242.745 39.056 242.886 39.2133 243.062 39.32C243.238 39.4267 243.43 39.48 243.638 39.48C243.953 39.48 244.267 39.3467 244.582 39.08L244.718 39.208C244.505 39.5013 244.273 39.7173 244.022 39.856C243.771 39.9947 243.502 40.064 243.214 40.064ZM246.948 40.064C246.548 40.064 246.217 39.9813 245.956 39.816C245.7 39.6507 245.508 39.4347 245.38 39.168C245.257 38.896 245.196 38.6053 245.196 38.296C245.196 38.0613 245.231 37.832 245.3 37.608C245.375 37.384 245.484 37.1813 245.628 37C245.777 36.8133 245.964 36.6667 246.188 36.56C246.412 36.448 246.676 36.392 246.98 36.392C247.156 36.392 247.324 36.4107 247.484 36.448C247.644 36.4853 247.78 36.5333 247.892 36.592V35.136C247.892 35.024 247.873 34.9493 247.836 34.912C247.799 34.8747 247.745 34.848 247.676 34.832L247.42 34.768V34.624C247.724 34.5813 247.983 34.5413 248.196 34.504C248.409 34.4667 248.631 34.4053 248.86 34.32L248.94 34.384C248.903 34.4427 248.873 34.5333 248.852 34.656C248.836 34.7787 248.828 34.912 248.828 35.056V39.232C248.828 39.408 248.873 39.5333 248.964 39.608C249.055 39.6827 249.207 39.72 249.42 39.72V39.928C249.191 39.9333 248.975 39.952 248.772 39.984C248.575 40.0107 248.359 40.0373 248.124 40.064L248.044 40.024L247.98 39.584H247.948L247.252 39.976C247.215 39.9973 247.167 40.016 247.108 40.032C247.055 40.0533 247.001 40.064 246.948 40.064ZM247.204 39.496C247.423 39.496 247.591 39.4267 247.708 39.288C247.831 39.1493 247.892 38.9867 247.892 38.8V37.704C247.892 37.5173 247.855 37.3467 247.78 37.192C247.705 37.032 247.607 36.9067 247.484 36.816C247.367 36.72 247.236 36.672 247.092 36.672C246.895 36.672 246.729 36.736 246.596 36.864C246.468 36.9867 246.372 37.1493 246.308 37.352C246.249 37.5493 246.22 37.7627 246.22 37.992C246.22 38.248 246.255 38.4907 246.324 38.72C246.393 38.9493 246.5 39.136 246.644 39.28C246.793 39.424 246.98 39.496 247.204 39.496ZM249.76 40V39.864L250.016 39.768C250.096 39.736 250.152 39.696 250.184 39.648C250.216 39.6 250.232 39.5333 250.232 39.448V36.728H249.72V36.464H250.232V36.088C250.232 35.6347 250.301 35.28 250.44 35.024C250.584 34.768 250.781 34.5867 251.032 34.48C251.282 34.368 251.576 34.312 251.912 34.312C252.21 34.312 252.456 34.3733 252.648 34.496C252.84 34.6133 252.936 34.776 252.936 34.984C252.936 35.1387 252.893 35.2587 252.808 35.344C252.722 35.424 252.618 35.464 252.496 35.464C252.362 35.464 252.248 35.4267 252.152 35.352C252.061 35.272 252.016 35.16 252.016 35.016C252.016 34.9627 252.024 34.92 252.04 34.888C252.056 34.8507 252.072 34.8213 252.088 34.8C252.104 34.7733 252.117 34.752 252.128 34.736C252.144 34.7147 252.152 34.6907 252.152 34.664C252.152 34.6107 252.12 34.576 252.056 34.56C251.997 34.5387 251.93 34.528 251.856 34.528C251.701 34.528 251.573 34.5813 251.472 34.688C251.37 34.7893 251.296 34.9573 251.248 35.192C251.2 35.4267 251.176 35.7387 251.176 36.128V36.464H252.096L252.016 36.728H251.176V39.504C251.176 39.5627 251.194 39.616 251.232 39.664C251.274 39.7067 251.341 39.7413 251.432 39.768L251.776 39.864V40H249.76ZM254.168 40.064C253.811 40.064 253.496 39.984 253.224 39.824C252.952 39.664 252.741 39.448 252.592 39.176C252.443 38.904 252.368 38.5973 252.368 38.256C252.368 37.888 252.443 37.5653 252.592 37.288C252.741 37.0053 252.952 36.7867 253.224 36.632C253.496 36.472 253.811 36.392 254.168 36.392C254.531 36.392 254.848 36.472 255.12 36.632C255.392 36.7867 255.603 37 255.752 37.272C255.901 37.544 255.976 37.8507 255.976 38.192C255.976 38.5547 255.901 38.8773 255.752 39.16C255.603 39.4427 255.392 39.664 255.12 39.824C254.848 39.984 254.531 40.064 254.168 40.064ZM254.176 39.808C254.432 39.808 254.624 39.6853 254.752 39.44C254.885 39.1893 254.952 38.8027 254.952 38.28C254.952 37.7413 254.885 37.336 254.752 37.064C254.624 36.7867 254.427 36.648 254.16 36.648C253.909 36.648 253.717 36.7707 253.584 37.016C253.456 37.2613 253.392 37.6453 253.392 38.168C253.392 38.7067 253.456 39.1147 253.584 39.392C253.717 39.6693 253.915 39.808 254.176 39.808ZM256.26 40V39.864L256.516 39.768C256.59 39.7413 256.644 39.7013 256.676 39.648C256.713 39.5893 256.732 39.5227 256.732 39.448V35.136C256.732 35.024 256.713 34.9493 256.676 34.912C256.638 34.8747 256.585 34.848 256.516 34.832L256.26 34.768V34.624C256.564 34.5813 256.822 34.5413 257.036 34.504C257.249 34.4667 257.47 34.4053 257.7 34.32L257.78 34.384C257.742 34.4427 257.713 34.5333 257.692 34.656C257.676 34.7787 257.668 34.912 257.668 35.056V39.504C257.668 39.5787 257.692 39.6373 257.74 39.68C257.793 39.7227 257.841 39.752 257.884 39.768L258.14 39.864V40H256.26ZM258.502 40V39.864L258.758 39.768C258.902 39.7093 258.974 39.6027 258.974 39.448V37.16C258.974 37.048 258.955 36.9733 258.918 36.936C258.88 36.8987 258.827 36.872 258.758 36.856L258.502 36.792V36.648C258.806 36.6053 259.064 36.5653 259.278 36.528C259.491 36.4907 259.712 36.4293 259.942 36.344L260.022 36.408C259.984 36.4667 259.955 36.5573 259.934 36.68C259.918 36.8027 259.91 36.936 259.91 37.08V39.504C259.91 39.5787 259.934 39.6373 259.982 39.68C260.035 39.7227 260.083 39.752 260.126 39.768L260.382 39.864V40H258.502ZM259.43 35.64C259.264 35.64 259.123 35.584 259.006 35.472C258.894 35.3547 258.838 35.2133 258.838 35.048C258.838 34.8827 258.894 34.744 259.006 34.632C259.123 34.5147 259.264 34.456 259.43 34.456C259.595 34.456 259.734 34.5147 259.846 34.632C259.963 34.744 260.022 34.8827 260.022 35.048C260.022 35.2133 259.963 35.3547 259.846 35.472C259.734 35.584 259.595 35.64 259.43 35.64ZM262.426 40.064C262.068 40.064 261.754 39.984 261.482 39.824C261.21 39.664 260.999 39.448 260.85 39.176C260.7 38.904 260.626 38.5973 260.626 38.256C260.626 37.888 260.7 37.5653 260.85 37.288C260.999 37.0053 261.21 36.7867 261.482 36.632C261.754 36.472 262.068 36.392 262.426 36.392C262.788 36.392 263.106 36.472 263.378 36.632C263.65 36.7867 263.86 37 264.01 37.272C264.159 37.544 264.234 37.8507 264.234 38.192C264.234 38.5547 264.159 38.8773 264.01 39.16C263.86 39.4427 263.65 39.664 263.378 39.824C263.106 39.984 262.788 40.064 262.426 40.064ZM262.434 39.808C262.69 39.808 262.882 39.6853 263.01 39.44C263.143 39.1893 263.21 38.8027 263.21 38.28C263.21 37.7413 263.143 37.336 263.01 37.064C262.882 36.7867 262.684 36.648 262.418 36.648C262.167 36.648 261.975 36.7707 261.842 37.016C261.714 37.2613 261.65 37.6453 261.65 38.168C261.65 38.7067 261.714 39.1147 261.842 39.392C261.975 39.6693 262.172 39.808 262.434 39.808ZM265.482 40.048C265.348 40.048 265.231 39.9973 265.13 39.896C265.028 39.7947 264.978 39.6773 264.978 39.544C264.978 39.4 265.028 39.2773 265.13 39.176C265.231 39.0747 265.348 39.024 265.482 39.024C265.626 39.024 265.748 39.0747 265.85 39.176C265.951 39.2773 266.002 39.4 266.002 39.544C266.002 39.6773 265.951 39.7947 265.85 39.896C265.748 39.9973 265.626 40.048 265.482 40.048ZM268.37 40.064C268.06 40.064 267.786 39.9893 267.546 39.84C267.311 39.6907 267.127 39.4907 266.994 39.24C266.86 38.984 266.794 38.696 266.794 38.376C266.794 38.0027 266.876 37.68 267.042 37.408C267.207 37.1307 267.418 36.9147 267.674 36.76C267.93 36.6053 268.194 36.528 268.466 36.528C268.871 36.528 269.178 36.616 269.386 36.792C269.599 36.968 269.706 37.1787 269.706 37.424C269.706 37.5733 269.663 37.6853 269.578 37.76C269.498 37.8293 269.41 37.864 269.314 37.864C269.212 37.864 269.119 37.832 269.034 37.768C268.954 37.704 268.914 37.616 268.914 37.504C268.914 37.4293 268.932 37.3547 268.97 37.28C268.98 37.2533 268.991 37.2267 269.002 37.2C269.018 37.1733 269.026 37.144 269.026 37.112C269.026 36.9947 268.967 36.904 268.85 36.84C268.732 36.7707 268.586 36.736 268.41 36.736C268.244 36.736 268.079 36.7813 267.914 36.872C267.754 36.9627 267.62 37.112 267.514 37.32C267.412 37.528 267.362 37.8107 267.362 38.168C267.362 38.6373 267.479 38.9947 267.714 39.24C267.954 39.48 268.242 39.6 268.578 39.6C268.935 39.6 269.284 39.4587 269.626 39.176L269.722 39.256C269.524 39.5387 269.3 39.744 269.05 39.872C268.804 40 268.578 40.064 268.37 40.064ZM272.036 40.064C271.705 40.064 271.412 39.9893 271.156 39.84C270.905 39.6853 270.711 39.4773 270.572 39.216C270.433 38.9493 270.364 38.6533 270.364 38.328C270.364 37.976 270.433 37.664 270.572 37.392C270.711 37.12 270.905 36.9093 271.156 36.76C271.412 36.6053 271.705 36.528 272.036 36.528C272.372 36.528 272.665 36.6053 272.916 36.76C273.167 36.9093 273.361 37.1147 273.5 37.376C273.639 37.6373 273.708 37.9333 273.708 38.264C273.708 38.616 273.639 38.928 273.5 39.2C273.361 39.4667 273.167 39.6773 272.916 39.832C272.665 39.9867 272.372 40.064 272.036 40.064ZM272.044 39.872C272.375 39.872 272.633 39.7413 272.82 39.48C273.007 39.2133 273.1 38.8373 273.1 38.352C273.1 37.8507 273.007 37.4533 272.82 37.16C272.633 36.8667 272.369 36.72 272.028 36.72C271.697 36.72 271.439 36.8507 271.252 37.112C271.065 37.3733 270.972 37.7493 270.972 38.24C270.972 38.7413 271.065 39.1387 271.252 39.432C271.439 39.7253 271.703 39.872 272.044 39.872ZM278.634 40V39.88L278.97 39.792C279.05 39.7707 279.104 39.7413 279.13 39.704C279.162 39.6667 279.178 39.6107 279.178 39.536V37.744C279.178 37.488 279.112 37.2933 278.978 37.16C278.845 37.0213 278.653 36.952 278.402 36.952C278.157 36.952 277.957 37.04 277.802 37.216C277.648 37.3867 277.57 37.5893 277.57 37.824L277.354 37.032H277.554C277.677 36.9787 277.829 36.9067 278.01 36.816C278.192 36.7253 278.341 36.6427 278.458 36.568C278.501 36.5413 278.541 36.528 278.578 36.528C278.941 36.528 279.221 36.624 279.418 36.816C279.616 37.0027 279.714 37.2773 279.714 37.64V39.536C279.714 39.6107 279.728 39.6667 279.754 39.704C279.786 39.7413 279.842 39.7707 279.922 39.792L280.258 39.88V40H278.634ZM274.346 40V39.88L274.682 39.792C274.762 39.7707 274.816 39.7413 274.842 39.704C274.874 39.6667 274.89 39.6107 274.89 39.536V37.352C274.89 37.2453 274.877 37.1707 274.85 37.128C274.824 37.0853 274.773 37.0533 274.698 37.032L274.354 36.936V36.856C274.477 36.8293 274.597 36.8 274.714 36.768C274.837 36.736 274.954 36.6987 275.066 36.656C275.184 36.6133 275.296 36.5627 275.402 36.504L275.474 36.552C275.448 36.6213 275.424 36.6987 275.402 36.784C275.386 36.864 275.378 36.9413 275.378 37.016V37.096L275.426 37.216V39.536C275.426 39.6107 275.44 39.6667 275.466 39.704C275.498 39.7413 275.554 39.7707 275.634 39.792L275.97 39.88V40H274.346ZM276.49 40V39.88L276.826 39.792C276.906 39.7707 276.96 39.7413 276.986 39.704C277.018 39.6667 277.034 39.6107 277.034 39.536V37.744C277.034 37.488 276.968 37.2933 276.834 37.16C276.701 37.0213 276.509 36.952 276.258 36.952C276.013 36.952 275.813 37.04 275.658 37.216C275.504 37.3867 275.426 37.5893 275.426 37.824L275.21 37.032H275.41C275.533 36.9787 275.685 36.9067 275.866 36.816C276.048 36.7253 276.197 36.6427 276.314 36.568C276.357 36.5413 276.397 36.528 276.434 36.528C276.797 36.528 277.077 36.624 277.274 36.816C277.472 37.0027 277.57 37.2773 277.57 37.64V39.536C277.57 39.6107 277.584 39.6667 277.61 39.704C277.642 39.7413 277.698 39.7707 277.778 39.792L278.114 39.88V40H276.49ZM281.427 40.048C281.294 40.048 281.176 39.9973 281.075 39.896C280.974 39.7947 280.923 39.6773 280.923 39.544C280.923 39.4 280.974 39.2773 281.075 39.176C281.176 39.0747 281.294 39.024 281.427 39.024C281.571 39.024 281.694 39.0747 281.795 39.176C281.896 39.2773 281.947 39.4 281.947 39.544C281.947 39.6773 281.896 39.7947 281.795 39.896C281.694 39.9973 281.571 40.048 281.427 40.048ZM284.653 40V39.856L285.029 39.792C285.211 39.76 285.349 39.7093 285.445 39.64C285.541 39.5653 285.616 39.4613 285.669 39.328L287.293 35.36L287.125 34.92C287.237 34.9147 287.331 34.8827 287.405 34.824C287.48 34.76 287.536 34.6907 287.573 34.616C287.611 34.536 287.629 34.4693 287.629 34.416H287.701L289.653 39.144C289.749 39.3787 289.848 39.5387 289.949 39.624C290.056 39.704 290.192 39.76 290.357 39.792L290.677 39.856V40H288.045V39.856L288.477 39.784C288.648 39.7573 288.765 39.7253 288.829 39.688C288.893 39.6507 288.925 39.6 288.925 39.536C288.925 39.4933 288.915 39.4427 288.893 39.384C288.872 39.3253 288.848 39.2587 288.821 39.184L287.357 35.488H287.541L285.949 39.344C285.933 39.3813 285.92 39.4187 285.909 39.456C285.899 39.488 285.893 39.5173 285.893 39.544C285.893 39.608 285.917 39.656 285.965 39.688C286.019 39.72 286.093 39.744 286.189 39.76L286.709 39.856V40H284.653ZM286.429 38.168L286.373 37.912H288.717V38.168H286.429ZM290.995 40V39.88L291.331 39.792C291.411 39.7707 291.464 39.7413 291.491 39.704C291.523 39.6667 291.539 39.6107 291.539 39.536L291.555 35.152C291.555 35.0453 291.542 34.9707 291.515 34.928C291.488 34.8853 291.438 34.8533 291.363 34.832L290.995 34.736V34.656C291.187 34.6133 291.376 34.568 291.563 34.52C291.755 34.4667 291.939 34.3947 292.115 34.304L292.187 34.352C292.144 34.4693 292.118 34.592 292.107 34.72C292.096 34.8427 292.091 34.9973 292.091 35.184L292.075 39.536C292.075 39.6107 292.088 39.6667 292.115 39.704C292.147 39.7413 292.203 39.7707 292.283 39.792L292.619 39.88V40H290.995ZM293.167 40V39.88L293.503 39.792C293.583 39.7707 293.636 39.7413 293.663 39.704C293.695 39.6667 293.711 39.6107 293.711 39.536L293.727 35.152C293.727 35.0453 293.713 34.9707 293.687 34.928C293.66 34.8853 293.609 34.8533 293.535 34.832L293.167 34.736V34.656C293.359 34.6133 293.548 34.568 293.735 34.52C293.927 34.4667 294.111 34.3947 294.287 34.304L294.359 34.352C294.316 34.4693 294.289 34.592 294.279 34.72C294.268 34.8427 294.263 34.9973 294.263 35.184L294.247 39.536C294.247 39.6107 294.26 39.6667 294.287 39.704C294.319 39.7413 294.375 39.7707 294.455 39.792L294.791 39.88V40H293.167ZM302.92 40.104C302.648 40.104 302.413 40.0453 302.216 39.928C302.024 39.8107 301.848 39.6587 301.688 39.472C301.533 39.28 301.376 39.0827 301.216 38.88C301.056 38.6667 300.901 38.4613 300.752 38.264C300.608 38.0667 300.44 37.9067 300.248 37.784C300.056 37.656 299.808 37.592 299.504 37.592H299.216V39.296C299.216 39.4613 299.245 39.5707 299.304 39.624C299.368 39.6773 299.509 39.7253 299.728 39.768L300.216 39.856V40H297.496V39.856L297.984 39.768C298.202 39.7253 298.341 39.6773 298.4 39.624C298.464 39.5707 298.496 39.4613 298.496 39.296V35.32C298.496 35.1493 298.464 35.0373 298.4 34.984C298.341 34.9307 298.202 34.8853 297.984 34.848L297.496 34.76V34.616H299.736C300.456 34.616 301.01 34.752 301.4 35.024C301.789 35.2907 301.984 35.6507 301.984 36.104C301.984 36.3493 301.917 36.568 301.784 36.76C301.65 36.9467 301.472 37.0987 301.248 37.216C301.029 37.328 300.789 37.4 300.528 37.432V37.456C300.773 37.456 300.981 37.52 301.152 37.648C301.322 37.7707 301.474 37.928 301.608 38.12C301.746 38.312 301.888 38.5147 302.032 38.728C302.17 38.9253 302.309 39.1147 302.448 39.296C302.586 39.472 302.728 39.616 302.872 39.728C303.021 39.84 303.173 39.896 303.328 39.896V40.04C303.2 40.0827 303.064 40.104 302.92 40.104ZM299.216 37.368H299.736C300.05 37.368 300.314 37.3173 300.528 37.216C300.746 37.1147 300.912 36.9733 301.024 36.792C301.141 36.6053 301.2 36.3867 301.2 36.136C301.2 35.6987 301.058 35.368 300.776 35.144C300.498 34.9147 300.117 34.8 299.632 34.8H299.216V37.368ZM303.651 40V39.88L303.987 39.792C304.126 39.7547 304.195 39.6693 304.195 39.536V37.344C304.195 37.2373 304.182 37.1627 304.155 37.12C304.128 37.0773 304.078 37.0453 304.003 37.024L303.659 36.928V36.848C303.851 36.8053 304.038 36.76 304.219 36.712C304.4 36.6587 304.579 36.5867 304.755 36.496L304.827 36.544C304.784 36.6613 304.758 36.784 304.747 36.912C304.736 37.0347 304.731 37.1893 304.731 37.376V39.536C304.731 39.6053 304.747 39.6613 304.779 39.704C304.811 39.7467 304.859 39.776 304.923 39.792L305.259 39.88V40H303.651ZM304.451 35.504C304.334 35.504 304.23 35.4587 304.139 35.368C304.048 35.2773 304.003 35.1733 304.003 35.056C304.003 34.928 304.048 34.8187 304.139 34.728C304.23 34.6373 304.334 34.592 304.451 34.592C304.579 34.592 304.688 34.6373 304.779 34.728C304.87 34.8187 304.915 34.928 304.915 35.056C304.915 35.1733 304.87 35.2773 304.779 35.368C304.688 35.4587 304.579 35.504 304.451 35.504ZM307.369 42.08C306.969 42.08 306.646 42.0347 306.401 41.944C306.156 41.8533 305.977 41.7333 305.865 41.584C305.753 41.44 305.697 41.2853 305.697 41.12C305.697 40.9813 305.75 40.832 305.857 40.672C305.969 40.512 306.142 40.3707 306.377 40.248C306.617 40.1253 306.929 40.0507 307.313 40.024L307.369 40.088C306.98 40.1413 306.694 40.256 306.513 40.432C306.332 40.608 306.241 40.7787 306.241 40.944C306.241 41.168 306.348 41.3573 306.561 41.512C306.78 41.672 307.092 41.752 307.497 41.752C307.95 41.752 308.3 41.6667 308.545 41.496C308.796 41.3253 308.921 41.1253 308.921 40.896C308.921 40.6293 308.798 40.4267 308.553 40.288C308.313 40.1547 307.993 40.088 307.593 40.088C307.449 40.088 307.305 40.0933 307.161 40.104C307.022 40.1147 306.881 40.12 306.737 40.12C306.492 40.12 306.289 40.0667 306.129 39.96C305.969 39.8533 305.889 39.7093 305.889 39.528C305.889 39.5227 305.892 39.5147 305.897 39.504C305.902 39.488 305.916 39.4747 305.937 39.464C306.081 39.352 306.209 39.256 306.321 39.176C306.433 39.096 306.532 38.9893 306.617 38.856V38.824C306.42 38.7227 306.262 38.5813 306.145 38.4C306.033 38.2133 305.977 38.0027 305.977 37.768C305.977 37.4053 306.094 37.1093 306.329 36.88C306.569 36.6453 306.884 36.528 307.273 36.528C307.364 36.528 307.462 36.5387 307.569 36.56C307.676 36.576 307.78 36.5947 307.881 36.616C307.982 36.6373 308.081 36.656 308.177 36.672C308.273 36.688 308.356 36.696 308.425 36.696C308.564 36.696 308.633 36.6533 308.633 36.568C308.633 36.52 308.622 36.4773 308.601 36.44C308.585 36.4027 308.564 36.3653 308.537 36.328C308.516 36.2907 308.494 36.2533 308.473 36.216C308.457 36.1787 308.449 36.1387 308.449 36.096C308.449 35.9947 308.478 35.9227 308.537 35.88C308.596 35.832 308.665 35.808 308.745 35.808C308.852 35.808 308.934 35.8507 308.993 35.936C309.052 36.016 309.081 36.1147 309.081 36.232C309.081 36.4773 309.025 36.6533 308.913 36.76C308.806 36.8667 308.676 36.92 308.521 36.92C308.393 36.92 308.265 36.888 308.137 36.824V36.864C308.292 36.9813 308.398 37.12 308.457 37.28C308.521 37.4347 308.553 37.616 308.553 37.824C308.553 38.0373 308.502 38.2293 308.401 38.4C308.305 38.5707 308.164 38.7067 307.977 38.808C307.796 38.904 307.577 38.9573 307.321 38.968C307.012 38.9787 306.788 39.032 306.649 39.128C306.516 39.2187 306.449 39.3173 306.449 39.424C306.449 39.4933 306.481 39.5467 306.545 39.584C306.609 39.6213 306.718 39.64 306.873 39.64C307.012 39.64 307.15 39.6373 307.289 39.632C307.428 39.6213 307.566 39.616 307.705 39.616C308.02 39.616 308.294 39.656 308.529 39.736C308.764 39.816 308.945 39.9333 309.073 40.088C309.201 40.2427 309.265 40.4347 309.265 40.664C309.265 40.8827 309.188 41.1013 309.033 41.32C308.884 41.5387 308.668 41.72 308.385 41.864C308.102 42.008 307.764 42.08 307.369 42.08ZM307.281 38.776C307.5 38.776 307.67 38.6853 307.793 38.504C307.916 38.3227 307.977 38.0827 307.977 37.784C307.977 37.48 307.913 37.2267 307.785 37.024C307.662 36.8213 307.486 36.72 307.257 36.72C307.054 36.72 306.889 36.8107 306.761 36.992C306.633 37.1733 306.569 37.4133 306.569 37.712C306.569 38.016 306.633 38.2693 306.761 38.472C306.894 38.6747 307.068 38.776 307.281 38.776ZM311.915 40V39.88L312.251 39.792C312.331 39.7707 312.384 39.7413 312.411 39.704C312.443 39.6667 312.459 39.6107 312.459 39.536V37.744C312.459 37.488 312.387 37.2933 312.243 37.16C312.104 37.0213 311.901 36.952 311.635 36.952C311.373 36.952 311.16 37.04 310.995 37.216C310.835 37.3867 310.755 37.5893 310.755 37.824L310.539 37.032H310.739C310.867 36.9787 311.021 36.9067 311.203 36.816C311.384 36.72 311.541 36.6373 311.675 36.568C311.701 36.5573 311.725 36.5493 311.747 36.544C311.768 36.5333 311.787 36.528 311.803 36.528C312.181 36.528 312.475 36.624 312.683 36.816C312.891 37.0027 312.995 37.2773 312.995 37.64V39.536C312.995 39.6107 313.008 39.6667 313.035 39.704C313.067 39.7413 313.123 39.7707 313.203 39.792L313.539 39.88V40H311.915ZM309.667 40V39.88L310.003 39.792C310.083 39.7707 310.136 39.7413 310.163 39.704C310.195 39.6667 310.211 39.6107 310.211 39.536L310.227 35.152C310.227 35.0453 310.213 34.9707 310.187 34.928C310.16 34.8853 310.109 34.8533 310.035 34.832L309.667 34.736V34.656C309.859 34.6133 310.048 34.568 310.235 34.52C310.427 34.4667 310.611 34.3947 310.787 34.304L310.859 34.352C310.816 34.4693 310.789 34.592 310.779 34.72C310.768 34.8427 310.763 34.9973 310.763 35.184L310.747 39.536C310.747 39.6107 310.76 39.6667 310.787 39.704C310.819 39.7413 310.875 39.7707 310.955 39.792L311.291 39.88V40H309.667ZM315.076 40.064C314.628 40.064 314.404 39.7707 314.404 39.184V36.816H313.86V36.656C314.18 36.5813 314.404 36.4613 314.532 36.296C314.665 36.1253 314.743 35.88 314.764 35.56H314.94V36.592H316.02L315.94 36.816H314.94V39.112C314.94 39.32 314.975 39.4667 315.044 39.552C315.113 39.6373 315.207 39.68 315.324 39.68C315.415 39.68 315.511 39.6613 315.612 39.624C315.719 39.5867 315.831 39.536 315.948 39.472L316.044 39.6C315.863 39.7493 315.687 39.864 315.516 39.944C315.345 40.024 315.199 40.064 315.076 40.064ZM317.624 40.064C317.395 40.064 317.179 40.0267 316.976 39.952C316.779 39.8773 316.627 39.808 316.52 39.744C316.531 39.5893 316.533 39.4347 316.528 39.28C316.528 39.1253 316.515 38.9653 316.488 38.8H316.704C316.736 39.0133 316.792 39.2027 316.872 39.368C316.957 39.528 317.069 39.6533 317.208 39.744C317.352 39.8347 317.528 39.88 317.736 39.88C317.891 39.88 318.027 39.824 318.144 39.712C318.267 39.5947 318.328 39.456 318.328 39.296C318.328 39.1573 318.304 39.0427 318.256 38.952C318.213 38.8613 318.131 38.7787 318.008 38.704C317.885 38.6293 317.707 38.5493 317.472 38.464C317.189 38.352 316.971 38.2267 316.816 38.088C316.661 37.944 316.584 37.7413 316.584 37.48C316.584 37.3147 316.629 37.16 316.72 37.016C316.816 36.872 316.949 36.7547 317.12 36.664C317.291 36.5733 317.488 36.528 317.712 36.528C317.867 36.528 317.992 36.544 318.088 36.576C318.184 36.608 318.285 36.648 318.392 36.696H318.576C318.571 36.8773 318.568 37.0373 318.568 37.176C318.573 37.3093 318.592 37.464 318.624 37.64H318.448C318.395 37.3467 318.301 37.12 318.168 36.96C318.035 36.8 317.867 36.72 317.664 36.72C317.488 36.72 317.344 36.7707 317.232 36.872C317.12 36.9733 317.064 37.1013 317.064 37.256C317.064 37.384 317.083 37.4907 317.12 37.576C317.163 37.656 317.24 37.7307 317.352 37.8C317.464 37.864 317.632 37.9387 317.856 38.024C318.208 38.1573 318.451 38.2987 318.584 38.448C318.723 38.592 318.792 38.7893 318.792 39.04C318.792 39.2107 318.749 39.376 318.664 39.536C318.579 39.6907 318.451 39.8187 318.28 39.92C318.109 40.016 317.891 40.064 317.624 40.064ZM326.935 40.104C326.663 40.104 326.429 40.0453 326.231 39.928C326.039 39.8107 325.863 39.6587 325.703 39.472C325.549 39.28 325.391 39.0827 325.231 38.88C325.071 38.6667 324.917 38.4613 324.767 38.264C324.623 38.0667 324.455 37.9067 324.263 37.784C324.071 37.656 323.823 37.592 323.519 37.592H323.231V39.296C323.231 39.4613 323.261 39.5707 323.319 39.624C323.383 39.6773 323.525 39.7253 323.743 39.768L324.231 39.856V40H321.511V39.856L321.999 39.768C322.218 39.7253 322.357 39.6773 322.415 39.624C322.479 39.5707 322.511 39.4613 322.511 39.296V35.32C322.511 35.1493 322.479 35.0373 322.415 34.984C322.357 34.9307 322.218 34.8853 321.999 34.848L321.511 34.76V34.616H323.751C324.471 34.616 325.026 34.752 325.415 35.024C325.805 35.2907 325.999 35.6507 325.999 36.104C325.999 36.3493 325.933 36.568 325.799 36.76C325.666 36.9467 325.487 37.0987 325.263 37.216C325.045 37.328 324.805 37.4 324.543 37.432V37.456C324.789 37.456 324.997 37.52 325.167 37.648C325.338 37.7707 325.49 37.928 325.623 38.12C325.762 38.312 325.903 38.5147 326.047 38.728C326.186 38.9253 326.325 39.1147 326.463 39.296C326.602 39.472 326.743 39.616 326.887 39.728C327.037 39.84 327.189 39.896 327.343 39.896V40.04C327.215 40.0827 327.079 40.104 326.935 40.104ZM323.231 37.368H323.751C324.066 37.368 324.33 37.3173 324.543 37.216C324.762 37.1147 324.927 36.9733 325.039 36.792C325.157 36.6053 325.215 36.3867 325.215 36.136C325.215 35.6987 325.074 35.368 324.791 35.144C324.514 34.9147 324.133 34.8 323.647 34.8H323.231V37.368ZM329.182 40.064C328.873 40.064 328.598 39.9867 328.358 39.832C328.118 39.6773 327.929 39.472 327.79 39.216C327.657 38.9547 327.59 38.664 327.59 38.344C327.59 37.9867 327.662 37.672 327.806 37.4C327.95 37.128 328.145 36.9147 328.39 36.76C328.641 36.6053 328.921 36.528 329.23 36.528C329.481 36.528 329.697 36.5893 329.878 36.712C330.065 36.8293 330.209 36.992 330.31 37.2C330.417 37.4027 330.47 37.632 330.47 37.888C330.47 37.92 330.46 37.9493 330.438 37.976C330.422 38.0027 330.39 38.016 330.342 38.016H328.03V37.832L329.67 37.784C329.772 37.784 329.822 37.736 329.822 37.64C329.822 37.3893 329.766 37.176 329.654 37C329.548 36.824 329.377 36.736 329.142 36.736C328.849 36.736 328.612 36.8693 328.43 37.136C328.249 37.3973 328.158 37.7413 328.158 38.168C328.158 38.4773 328.214 38.7387 328.326 38.952C328.438 39.1653 328.588 39.328 328.774 39.44C328.961 39.5467 329.166 39.6 329.39 39.6C329.726 39.6 330.065 39.4587 330.406 39.176L330.502 39.256C330.305 39.5387 330.086 39.744 329.846 39.872C329.612 40 329.39 40.064 329.182 40.064ZM332.28 40.064C332.051 40.064 331.835 40.0267 331.632 39.952C331.435 39.8773 331.283 39.808 331.176 39.744C331.187 39.5893 331.19 39.4347 331.184 39.28C331.184 39.1253 331.171 38.9653 331.144 38.8H331.36C331.392 39.0133 331.448 39.2027 331.528 39.368C331.614 39.528 331.726 39.6533 331.864 39.744C332.008 39.8347 332.184 39.88 332.392 39.88C332.547 39.88 332.683 39.824 332.8 39.712C332.923 39.5947 332.984 39.456 332.984 39.296C332.984 39.1573 332.96 39.0427 332.912 38.952C332.87 38.8613 332.787 38.7787 332.664 38.704C332.542 38.6293 332.363 38.5493 332.128 38.464C331.846 38.352 331.627 38.2267 331.472 38.088C331.318 37.944 331.24 37.7413 331.24 37.48C331.24 37.3147 331.286 37.16 331.376 37.016C331.472 36.872 331.606 36.7547 331.776 36.664C331.947 36.5733 332.144 36.528 332.368 36.528C332.523 36.528 332.648 36.544 332.744 36.576C332.84 36.608 332.942 36.648 333.048 36.696H333.232C333.227 36.8773 333.224 37.0373 333.224 37.176C333.23 37.3093 333.248 37.464 333.28 37.64H333.104C333.051 37.3467 332.958 37.12 332.824 36.96C332.691 36.8 332.523 36.72 332.32 36.72C332.144 36.72 332 36.7707 331.888 36.872C331.776 36.9733 331.72 37.1013 331.72 37.256C331.72 37.384 331.739 37.4907 331.776 37.576C331.819 37.656 331.896 37.7307 332.008 37.8C332.12 37.864 332.288 37.9387 332.512 38.024C332.864 38.1573 333.107 38.2987 333.24 38.448C333.379 38.592 333.448 38.7893 333.448 39.04C333.448 39.2107 333.406 39.376 333.32 39.536C333.235 39.6907 333.107 39.8187 332.936 39.92C332.766 40.016 332.547 40.064 332.28 40.064ZM335.682 40.064C335.373 40.064 335.098 39.9867 334.858 39.832C334.618 39.6773 334.429 39.472 334.29 39.216C334.157 38.9547 334.09 38.664 334.09 38.344C334.09 37.9867 334.162 37.672 334.306 37.4C334.45 37.128 334.645 36.9147 334.89 36.76C335.141 36.6053 335.421 36.528 335.73 36.528C335.981 36.528 336.197 36.5893 336.378 36.712C336.565 36.8293 336.709 36.992 336.81 37.2C336.917 37.4027 336.97 37.632 336.97 37.888C336.97 37.92 336.96 37.9493 336.938 37.976C336.922 38.0027 336.89 38.016 336.842 38.016H334.53V37.832L336.17 37.784C336.272 37.784 336.322 37.736 336.322 37.64C336.322 37.3893 336.266 37.176 336.154 37C336.048 36.824 335.877 36.736 335.642 36.736C335.349 36.736 335.112 36.8693 334.93 37.136C334.749 37.3973 334.658 37.7413 334.658 38.168C334.658 38.4773 334.714 38.7387 334.826 38.952C334.938 39.1653 335.088 39.328 335.274 39.44C335.461 39.5467 335.666 39.6 335.89 39.6C336.226 39.6 336.565 39.4587 336.906 39.176L337.002 39.256C336.805 39.5387 336.586 39.744 336.346 39.872C336.112 40 335.89 40.064 335.682 40.064ZM337.604 40V39.88L337.94 39.792C338.02 39.7707 338.074 39.7413 338.1 39.704C338.132 39.6667 338.148 39.6107 338.148 39.536V37.352C338.148 37.2453 338.135 37.1707 338.108 37.128C338.082 37.0853 338.031 37.0533 337.956 37.032L337.612 36.936V36.856C337.735 36.8293 337.855 36.8 337.972 36.768C338.095 36.736 338.212 36.6987 338.324 36.656C338.442 36.6133 338.554 36.5627 338.66 36.504L338.732 36.552C338.706 36.6213 338.682 36.6987 338.66 36.784C338.644 36.864 338.636 36.9413 338.636 37.016V37.096L338.684 37.216V39.536C338.684 39.6107 338.698 39.6667 338.724 39.704C338.756 39.7413 338.812 39.7707 338.892 39.792L339.276 39.88V40H337.604ZM338.684 37.744L338.54 37.096L339.468 36.568C339.5 36.552 339.532 36.5413 339.564 36.536C339.602 36.5253 339.636 36.52 339.668 36.52C339.764 36.52 339.85 36.552 339.924 36.616C339.999 36.68 340.036 36.7733 340.036 36.896C340.036 36.992 340.002 37.0773 339.932 37.152C339.863 37.2267 339.767 37.264 339.644 37.264C339.57 37.264 339.508 37.248 339.46 37.216C339.412 37.184 339.37 37.1493 339.332 37.112C339.306 37.08 339.276 37.0507 339.244 37.024C339.218 36.9973 339.186 36.984 339.148 36.984C339.111 36.984 339.055 37.008 338.98 37.056C338.906 37.0987 338.836 37.176 338.772 37.288C338.714 37.4 338.684 37.552 338.684 37.744ZM342.009 40.096L340.649 36.968C340.623 36.904 340.593 36.8587 340.561 36.832C340.529 36.8053 340.476 36.784 340.401 36.768L340.153 36.712V36.592H341.849V36.712L341.401 36.816C341.332 36.832 341.284 36.856 341.257 36.888C341.236 36.9147 341.233 36.9493 341.249 36.992L342.233 39.28H342.145L343.113 36.944C343.124 36.9173 343.121 36.8933 343.105 36.872C343.095 36.8507 343.049 36.8293 342.969 36.808L342.593 36.712V36.592H343.841V36.712L343.585 36.776C343.516 36.792 343.463 36.8133 343.425 36.84C343.393 36.8667 343.364 36.912 343.337 36.976L342.089 40.096H342.009ZM345.628 40.064C345.318 40.064 345.044 39.9867 344.804 39.832C344.564 39.6773 344.374 39.472 344.236 39.216C344.102 38.9547 344.036 38.664 344.036 38.344C344.036 37.9867 344.108 37.672 344.252 37.4C344.396 37.128 344.59 36.9147 344.836 36.76C345.086 36.6053 345.366 36.528 345.676 36.528C345.926 36.528 346.142 36.5893 346.324 36.712C346.51 36.8293 346.654 36.992 346.756 37.2C346.862 37.4027 346.916 37.632 346.916 37.888C346.916 37.92 346.905 37.9493 346.884 37.976C346.868 38.0027 346.836 38.016 346.788 38.016H344.476V37.832L346.116 37.784C346.217 37.784 346.268 37.736 346.268 37.64C346.268 37.3893 346.212 37.176 346.1 37C345.993 36.824 345.822 36.736 345.588 36.736C345.294 36.736 345.057 36.8693 344.876 37.136C344.694 37.3973 344.604 37.7413 344.604 38.168C344.604 38.4773 344.66 38.7387 344.772 38.952C344.884 39.1653 345.033 39.328 345.22 39.44C345.406 39.5467 345.612 39.6 345.836 39.6C346.172 39.6 346.51 39.4587 346.852 39.176L346.948 39.256C346.75 39.5387 346.532 39.744 346.292 39.872C346.057 40 345.836 40.064 345.628 40.064ZM349.38 40.064C349.001 40.064 348.686 39.984 348.436 39.824C348.19 39.664 348.006 39.456 347.884 39.2C347.766 38.9387 347.708 38.6613 347.708 38.368C347.708 38.144 347.742 37.9227 347.812 37.704C347.881 37.4853 347.985 37.288 348.124 37.112C348.262 36.9307 348.438 36.7893 348.652 36.688C348.87 36.5813 349.124 36.528 349.412 36.528C349.614 36.528 349.804 36.5547 349.98 36.608C350.156 36.656 350.294 36.7173 350.396 36.792V35.152C350.396 35.0453 350.382 34.9707 350.356 34.928C350.329 34.88 350.278 34.848 350.204 34.832L349.764 34.736V34.656C349.956 34.6133 350.158 34.568 350.372 34.52C350.585 34.4667 350.78 34.3947 350.956 34.304L351.028 34.352C350.985 34.4693 350.958 34.592 350.948 34.72C350.937 34.8427 350.932 34.9973 350.932 35.184V39.416C350.932 39.5707 350.988 39.6773 351.1 39.736C351.217 39.7947 351.385 39.8187 351.604 39.808V39.96C351.433 39.9653 351.262 39.9787 351.092 40C350.921 40.0213 350.75 40.0427 350.58 40.064L350.516 40.032L350.46 39.6H350.428L349.676 39.976C349.638 39.9973 349.593 40.016 349.54 40.032C349.486 40.0533 349.433 40.064 349.38 40.064ZM349.532 39.688C349.793 39.688 350.004 39.6133 350.164 39.464C350.329 39.3093 350.412 39.136 350.412 38.944V37.816C350.412 37.6133 350.364 37.432 350.268 37.272C350.172 37.1067 350.046 36.976 349.892 36.88C349.742 36.784 349.577 36.736 349.396 36.736C349.14 36.736 348.926 36.8 348.756 36.928C348.59 37.056 348.468 37.2267 348.388 37.44C348.308 37.648 348.268 37.872 348.268 38.112C348.268 38.4107 348.31 38.68 348.396 38.92C348.486 39.1547 348.625 39.3413 348.812 39.48C348.998 39.6187 349.238 39.688 349.532 39.688ZM352.825 40.048C352.692 40.048 352.575 39.9973 352.473 39.896C352.372 39.7947 352.321 39.6773 352.321 39.544C352.321 39.4 352.372 39.2773 352.473 39.176C352.575 39.0747 352.692 39.024 352.825 39.024C352.969 39.024 353.092 39.0747 353.193 39.176C353.295 39.2773 353.345 39.4 353.345 39.544C353.345 39.6773 353.295 39.7947 353.193 39.896C353.092 39.9973 352.969 40.048 352.825 40.048Z" fill="#F6EBDC"/>
</svg>
