<svg width="1440" height="193" viewBox="0 0 1440 193" fill="none" xmlns="http://www.w3.org/2000/svg">
<path d="M1060.5 2L496 155.5L0 106.635V192H1261.5V39.5L1060.5 2Z" fill="#1B4D56"/>
<path d="M663.48 159.5L-23 93L-22.4915 196H1442V43.5L1237.58 6L663.48 159.5Z" fill="#1B4D56" stroke="#F6EBDC" stroke-width="2"/>
<path d="M949.584 138.928C947.824 138.928 946.328 138.568 945.096 137.848C943.88 137.128 942.952 136.176 942.312 134.992C941.672 133.792 941.352 132.472 941.352 131.032C941.352 129.96 941.536 128.928 941.904 127.936C942.288 126.944 942.84 126.056 943.56 125.272C944.28 124.472 945.144 123.84 946.152 123.376C947.176 122.912 948.32 122.68 949.584 122.68C950.832 122.68 951.96 122.888 952.968 123.304C953.992 123.704 954.856 124.272 955.56 125.008C956.28 125.728 956.832 126.56 957.216 127.504C957.6 128.448 957.792 129.456 957.792 130.528C957.792 131.6 957.608 132.64 957.24 133.648C956.872 134.656 956.328 135.56 955.608 136.36C954.904 137.144 954.04 137.768 953.016 138.232C952.008 138.696 950.864 138.928 949.584 138.928ZM949.68 135.352C948.736 135.352 947.904 135.144 947.184 134.728C946.48 134.312 945.928 133.752 945.528 133.048C945.128 132.344 944.928 131.56 944.928 130.696C944.928 129.784 945.144 128.984 945.576 128.296C946.024 127.592 946.608 127.048 947.328 126.664C948.048 126.28 948.816 126.088 949.632 126.088C950.112 126.088 950.512 126.136 950.832 126.232C951.152 126.312 951.432 126.392 951.672 126.472C951.848 126.536 952.016 126.592 952.176 126.64C952.336 126.672 952.504 126.688 952.68 126.688C952.76 126.688 952.84 126.68 952.92 126.664C953 126.648 953.08 126.632 953.16 126.616L953.184 126.664C953.152 126.872 953.136 127.152 953.136 127.504C953.136 127.856 953.216 128.336 953.376 128.944H952.896C952.688 128.368 952.32 127.848 951.792 127.384C951.264 126.904 950.56 126.664 949.68 126.664C948.752 126.664 948.024 127.032 947.496 127.768C946.984 128.488 946.728 129.448 946.728 130.648C946.728 131.88 946.976 132.864 947.472 133.6C947.968 134.32 948.704 134.68 949.68 134.68C950.384 134.68 951.008 134.544 951.552 134.272C952.096 133.984 952.544 133.376 952.896 132.448H953.4C953.32 132.88 953.24 133.304 953.16 133.72C953.08 134.12 953.04 134.504 953.04 134.872H952.92C952.744 134.872 952.528 134.896 952.272 134.944C952.032 134.976 951.768 135.024 951.48 135.088C951.176 135.152 950.856 135.216 950.52 135.28C950.2 135.328 949.92 135.352 949.68 135.352ZM949.632 138.232C950.992 138.232 952.216 137.904 953.304 137.248C954.392 136.576 955.256 135.672 955.896 134.536C956.536 133.384 956.856 132.08 956.856 130.624C956.856 129.584 956.672 128.624 956.304 127.744C955.936 126.864 955.416 126.096 954.744 125.44C954.088 124.784 953.32 124.272 952.44 123.904C951.56 123.536 950.6 123.352 949.56 123.352C948.536 123.352 947.576 123.56 946.68 123.976C945.8 124.392 945.032 124.96 944.376 125.68C943.736 126.4 943.232 127.216 942.864 128.128C942.496 129.04 942.312 129.984 942.312 130.96C942.312 132.448 942.632 133.736 943.272 134.824C943.912 135.912 944.784 136.752 945.888 137.344C947.008 137.936 948.256 138.232 949.632 138.232ZM965.94 139V138.712L969.228 135.04C970.092 134.08 970.772 133.232 971.268 132.496C971.78 131.744 972.156 131.064 972.396 130.456C972.652 129.848 972.82 129.272 972.9 128.728C972.98 128.184 973.02 127.64 973.02 127.096C973.02 125.912 972.756 124.992 972.228 124.336C971.716 123.664 970.916 123.328 969.828 123.328C969.492 123.328 969.156 123.392 968.82 123.52C968.484 123.632 968.204 123.8 967.98 124.024C967.756 124.232 967.644 124.488 967.644 124.792C967.644 124.904 967.716 125.032 967.86 125.176C967.94 125.272 968.028 125.392 968.124 125.536C968.22 125.68 968.268 125.88 968.268 126.136C968.268 126.456 968.156 126.712 967.932 126.904C967.708 127.096 967.42 127.192 967.068 127.192C966.796 127.192 966.54 127.096 966.3 126.904C966.076 126.696 965.964 126.376 965.964 125.944C965.964 125.224 966.18 124.624 966.612 124.144C967.06 123.648 967.628 123.272 968.316 123.016C969.02 122.76 969.748 122.632 970.5 122.632C971.3 122.632 972.06 122.784 972.78 123.088C973.516 123.392 974.116 123.864 974.58 124.504C975.044 125.144 975.276 125.96 975.276 126.952C975.276 127.992 975.052 128.944 974.604 129.808C974.172 130.672 973.572 131.544 972.804 132.424C972.052 133.288 971.196 134.264 970.236 135.352L968.7 137.08H973.332C973.78 137.08 974.084 137 974.244 136.84C974.404 136.68 974.58 136.312 974.772 135.736L975.036 134.92H975.468L974.796 139H965.94ZM983.894 139.192C982.934 139.192 982.102 138.976 981.398 138.544C980.71 138.096 980.134 137.488 979.67 136.72C979.222 135.936 978.886 135.04 978.662 134.032C978.454 133.024 978.35 131.944 978.35 130.792C978.35 129.256 978.542 127.872 978.926 126.64C979.326 125.408 979.934 124.432 980.75 123.712C981.566 122.976 982.614 122.608 983.894 122.608C985.174 122.608 986.222 122.976 987.038 123.712C987.854 124.432 988.454 125.408 988.838 126.64C989.238 127.872 989.438 129.256 989.438 130.792C989.438 131.944 989.326 133.024 989.102 134.032C988.894 135.04 988.558 135.936 988.094 136.72C987.646 137.488 987.07 138.096 986.366 138.544C985.678 138.976 984.854 139.192 983.894 139.192ZM983.894 138.64C984.63 138.64 985.214 138.432 985.646 138.016C986.094 137.6 986.43 137.032 986.654 136.312C986.878 135.576 987.03 134.736 987.11 133.792C987.19 132.848 987.23 131.848 987.23 130.792C987.23 129.736 987.19 128.752 987.11 127.84C987.03 126.912 986.878 126.104 986.654 125.416C986.43 124.712 986.094 124.168 985.646 123.784C985.198 123.384 984.614 123.184 983.894 123.184C983.174 123.184 982.59 123.384 982.142 123.784C981.694 124.168 981.358 124.712 981.134 125.416C980.91 126.104 980.758 126.912 980.678 127.84C980.598 128.752 980.558 129.736 980.558 130.792C980.558 131.848 980.598 132.848 980.678 133.792C980.758 134.736 980.91 135.576 981.134 136.312C981.358 137.032 981.686 137.6 982.118 138.016C982.566 138.432 983.158 138.64 983.894 138.64ZM991.839 139V138.712L995.127 135.04C995.991 134.08 996.671 133.232 997.167 132.496C997.679 131.744 998.055 131.064 998.295 130.456C998.551 129.848 998.719 129.272 998.799 128.728C998.879 128.184 998.919 127.64 998.919 127.096C998.919 125.912 998.655 124.992 998.127 124.336C997.615 123.664 996.815 123.328 995.727 123.328C995.391 123.328 995.055 123.392 994.719 123.52C994.383 123.632 994.103 123.8 993.879 124.024C993.655 124.232 993.543 124.488 993.543 124.792C993.543 124.904 993.615 125.032 993.759 125.176C993.839 125.272 993.927 125.392 994.023 125.536C994.119 125.68 994.167 125.88 994.167 126.136C994.167 126.456 994.055 126.712 993.831 126.904C993.607 127.096 993.319 127.192 992.967 127.192C992.695 127.192 992.439 127.096 992.199 126.904C991.975 126.696 991.863 126.376 991.863 125.944C991.863 125.224 992.079 124.624 992.511 124.144C992.959 123.648 993.527 123.272 994.215 123.016C994.919 122.76 995.647 122.632 996.399 122.632C997.199 122.632 997.959 122.784 998.679 123.088C999.415 123.392 1000.01 123.864 1000.48 124.504C1000.94 125.144 1001.17 125.96 1001.17 126.952C1001.17 127.992 1000.95 128.944 1000.5 129.808C1000.07 130.672 999.471 131.544 998.703 132.424C997.951 133.288 997.095 134.264 996.135 135.352L994.599 137.08H999.231C999.679 137.08 999.983 137 1000.14 136.84C1000.3 136.68 1000.48 136.312 1000.67 135.736L1000.93 134.92H1001.37L1000.69 139H991.839ZM1007.37 139V138.568L1008.59 138.352C1009.25 138.224 1009.66 138.08 1009.84 137.92C1010.03 137.76 1010.13 137.432 1010.13 136.936V125.344L1010.56 125.488L1004.7 133.6L1004.49 133.024H1013.1C1013.44 133.024 1013.67 132.976 1013.8 132.88C1013.93 132.784 1014.04 132.584 1014.14 132.28L1014.47 131.248H1014.9L1014.3 134.704H1003.41V134.272L1012.02 122.416H1012.19V136.936C1012.19 137.432 1012.28 137.76 1012.46 137.92C1012.65 138.08 1013.07 138.224 1013.73 138.352L1014.95 138.568V139H1007.37ZM1033.13 139.144L1027.23 126.136L1026.53 136.792C1026.52 137.192 1026.62 137.496 1026.85 137.704C1027.07 137.896 1027.4 138.032 1027.83 138.112L1029.58 138.472V139H1022.98V138.472L1024.37 138.16C1024.66 138.096 1024.89 138.016 1025.07 137.92C1025.26 137.808 1025.41 137.664 1025.5 137.488C1025.6 137.312 1025.65 137.08 1025.67 136.792L1026.39 125.056C1026.42 124.544 1026.35 124.208 1026.17 124.048C1026.01 123.888 1025.65 123.752 1025.09 123.64L1023.87 123.376V122.848L1029.51 122.872L1034.57 133.984L1039.06 122.848H1044.87V123.376L1043.65 123.64C1043.1 123.752 1042.74 123.888 1042.57 124.048C1042.41 124.208 1042.33 124.544 1042.35 125.056L1042.83 136.792C1042.85 137.128 1042.89 137.384 1042.95 137.56C1043.01 137.736 1043.13 137.872 1043.31 137.968C1043.49 138.048 1043.76 138.128 1044.13 138.208L1045.35 138.472V139H1036.95V138.472L1038.17 138.208C1038.73 138.08 1039.09 137.936 1039.25 137.776C1039.43 137.616 1039.5 137.288 1039.47 136.792L1038.94 125.584L1033.49 139.144H1033.13ZM1051.49 139.192C1050.46 139.192 1049.55 138.952 1048.75 138.472C1047.97 137.992 1047.34 137.344 1046.88 136.528C1046.43 135.712 1046.21 134.808 1046.21 133.816C1046.21 132.696 1046.45 131.712 1046.93 130.864C1047.42 130.016 1048.09 129.352 1048.92 128.872C1049.77 128.392 1050.72 128.152 1051.77 128.152C1052.62 128.152 1053.36 128.352 1053.98 128.752C1054.62 129.136 1055.12 129.672 1055.47 130.36C1055.82 131.032 1056 131.792 1056 132.64C1056 132.8 1055.95 132.944 1055.85 133.072C1055.77 133.184 1055.64 133.24 1055.45 133.24H1047.67V132.376L1052.88 132.16C1053.1 132.16 1053.21 131.992 1053.21 131.656C1053.21 130.808 1053.07 130.144 1052.78 129.664C1052.49 129.168 1052.11 128.92 1051.63 128.92C1050.89 128.92 1050.32 129.32 1049.9 130.12C1049.49 130.92 1049.28 131.968 1049.28 133.264C1049.28 134.16 1049.44 134.92 1049.76 135.544C1050.08 136.168 1050.5 136.64 1051.03 136.96C1051.56 137.28 1052.13 137.44 1052.76 137.44C1053.7 137.44 1054.65 137.04 1055.59 136.24L1056 136.624C1055.36 137.504 1054.66 138.152 1053.91 138.568C1053.16 138.984 1052.35 139.192 1051.49 139.192ZM1062.69 139.192C1061.49 139.192 1060.5 138.944 1059.71 138.448C1058.94 137.952 1058.37 137.304 1057.98 136.504C1057.62 135.688 1057.43 134.816 1057.43 133.888C1057.43 133.184 1057.54 132.496 1057.74 131.824C1057.97 131.152 1058.3 130.544 1058.73 130C1059.18 129.44 1059.74 129 1060.41 128.68C1061.08 128.344 1061.87 128.176 1062.78 128.176C1063.31 128.176 1063.82 128.232 1064.3 128.344C1064.78 128.456 1065.18 128.6 1065.52 128.776V124.408C1065.52 124.072 1065.46 123.848 1065.35 123.736C1065.24 123.624 1065.08 123.544 1064.87 123.496L1064.1 123.304V122.872C1065.02 122.744 1065.79 122.624 1066.43 122.512C1067.07 122.4 1067.74 122.216 1068.42 121.96L1068.66 122.152C1068.55 122.328 1068.46 122.6 1068.4 122.968C1068.35 123.336 1068.33 123.736 1068.33 124.168V136.696C1068.33 137.224 1068.46 137.6 1068.74 137.824C1069.01 138.048 1069.46 138.16 1070.1 138.16V138.784C1069.42 138.8 1068.77 138.856 1068.16 138.952C1067.57 139.032 1066.92 139.112 1066.22 139.192L1065.98 139.072L1065.78 137.752H1065.69L1063.6 138.928C1063.49 138.992 1063.34 139.048 1063.17 139.096C1063.01 139.16 1062.85 139.192 1062.69 139.192ZM1063.46 137.488C1064.11 137.488 1064.62 137.28 1064.97 136.864C1065.34 136.448 1065.52 135.96 1065.52 135.4V132.112C1065.52 131.552 1065.41 131.04 1065.18 130.576C1064.96 130.096 1064.66 129.72 1064.3 129.448C1063.94 129.16 1063.55 129.016 1063.12 129.016C1062.53 129.016 1062.03 129.208 1061.63 129.592C1061.25 129.96 1060.96 130.448 1060.77 131.056C1060.59 131.648 1060.5 132.288 1060.5 132.976C1060.5 133.744 1060.61 134.472 1060.82 135.16C1061.02 135.848 1061.34 136.408 1061.78 136.84C1062.22 137.272 1062.78 137.488 1063.46 137.488ZM1071.12 139V138.592L1071.89 138.304C1072.13 138.208 1072.3 138.088 1072.39 137.944C1072.49 137.8 1072.54 137.6 1072.54 137.344V129.184H1071V128.392H1072.54V127.264C1072.54 125.904 1072.75 124.84 1073.16 124.072C1073.59 123.304 1074.19 122.76 1074.94 122.44C1075.69 122.104 1076.57 121.936 1077.58 121.936C1078.47 121.936 1079.21 122.12 1079.79 122.488C1080.36 122.84 1080.65 123.328 1080.65 123.952C1080.65 124.416 1080.52 124.776 1080.27 125.032C1080.01 125.272 1079.7 125.392 1079.33 125.392C1078.93 125.392 1078.59 125.28 1078.3 125.056C1078.03 124.816 1077.89 124.48 1077.89 124.048C1077.89 123.888 1077.91 123.76 1077.96 123.664C1078.01 123.552 1078.06 123.464 1078.11 123.4C1078.15 123.32 1078.19 123.256 1078.23 123.208C1078.27 123.144 1078.3 123.072 1078.3 122.992C1078.3 122.832 1078.2 122.728 1078.01 122.68C1077.83 122.616 1077.63 122.584 1077.41 122.584C1076.95 122.584 1076.56 122.744 1076.26 123.064C1075.95 123.368 1075.73 123.872 1075.59 124.576C1075.44 125.28 1075.37 126.216 1075.37 127.384V128.392H1078.13L1077.89 129.184H1075.37V137.512C1075.37 137.688 1075.43 137.848 1075.54 137.992C1075.67 138.12 1075.87 138.224 1076.14 138.304L1077.17 138.592V139H1071.12ZM1084.35 139.192C1083.28 139.192 1082.33 138.952 1081.52 138.472C1080.7 137.992 1080.07 137.344 1079.62 136.528C1079.17 135.712 1078.95 134.792 1078.95 133.768C1078.95 132.664 1079.17 131.696 1079.62 130.864C1080.07 130.016 1080.7 129.36 1081.52 128.896C1082.33 128.416 1083.28 128.176 1084.35 128.176C1085.44 128.176 1086.39 128.416 1087.2 128.896C1088.02 129.36 1088.65 130 1089.1 130.816C1089.55 131.632 1089.77 132.552 1089.77 133.576C1089.77 134.664 1089.55 135.632 1089.1 136.48C1088.65 137.328 1088.02 137.992 1087.2 138.472C1086.39 138.952 1085.44 139.192 1084.35 139.192ZM1084.37 138.424C1085.14 138.424 1085.72 138.056 1086.1 137.32C1086.5 136.568 1086.7 135.408 1086.7 133.84C1086.7 132.224 1086.5 131.008 1086.1 130.192C1085.72 129.36 1085.12 128.944 1084.32 128.944C1083.57 128.944 1083 129.312 1082.6 130.048C1082.21 130.784 1082.02 131.936 1082.02 133.504C1082.02 135.12 1082.21 136.344 1082.6 137.176C1083 138.008 1083.59 138.424 1084.37 138.424ZM1090.62 139V138.592L1091.39 138.304C1091.61 138.224 1091.77 138.104 1091.87 137.944C1091.98 137.768 1092.04 137.568 1092.04 137.344V124.408C1092.04 124.072 1091.98 123.848 1091.87 123.736C1091.76 123.624 1091.6 123.544 1091.39 123.496L1090.62 123.304V122.872C1091.53 122.744 1092.31 122.624 1092.95 122.512C1093.59 122.4 1094.25 122.216 1094.94 121.96L1095.18 122.152C1095.07 122.328 1094.98 122.6 1094.92 122.968C1094.87 123.336 1094.85 123.736 1094.85 124.168V137.512C1094.85 137.736 1094.92 137.912 1095.06 138.04C1095.22 138.168 1095.37 138.256 1095.49 138.304L1096.26 138.592V139H1090.62ZM1097.35 139V138.592L1098.12 138.304C1098.55 138.128 1098.76 137.808 1098.76 137.344V130.48C1098.76 130.144 1098.71 129.92 1098.6 129.808C1098.48 129.696 1098.32 129.616 1098.12 129.568L1097.35 129.376V128.944C1098.26 128.816 1099.04 128.696 1099.68 128.584C1100.32 128.472 1100.98 128.288 1101.67 128.032L1101.91 128.224C1101.8 128.4 1101.71 128.672 1101.64 129.04C1101.6 129.408 1101.57 129.808 1101.57 130.24V137.512C1101.57 137.736 1101.64 137.912 1101.79 138.04C1101.95 138.168 1102.09 138.256 1102.22 138.304L1102.99 138.592V139H1097.35ZM1100.13 125.92C1099.64 125.92 1099.21 125.752 1098.86 125.416C1098.52 125.064 1098.36 124.64 1098.36 124.144C1098.36 123.648 1098.52 123.232 1098.86 122.896C1099.21 122.544 1099.64 122.368 1100.13 122.368C1100.63 122.368 1101.04 122.544 1101.38 122.896C1101.73 123.232 1101.91 123.648 1101.91 124.144C1101.91 124.64 1101.73 125.064 1101.38 125.416C1101.04 125.752 1100.63 125.92 1100.13 125.92ZM1109.12 139.192C1108.05 139.192 1107.11 138.952 1106.29 138.472C1105.47 137.992 1104.84 137.344 1104.39 136.528C1103.95 135.712 1103.72 134.792 1103.72 133.768C1103.72 132.664 1103.95 131.696 1104.39 130.864C1104.84 130.016 1105.47 129.36 1106.29 128.896C1107.11 128.416 1108.05 128.176 1109.12 128.176C1110.21 128.176 1111.16 128.416 1111.98 128.896C1112.79 129.36 1113.43 130 1113.87 130.816C1114.32 131.632 1114.55 132.552 1114.55 133.576C1114.55 134.664 1114.32 135.632 1113.87 136.48C1113.43 137.328 1112.79 137.992 1111.98 138.472C1111.16 138.952 1110.21 139.192 1109.12 139.192ZM1109.15 138.424C1109.91 138.424 1110.49 138.056 1110.87 137.32C1111.27 136.568 1111.47 135.408 1111.47 133.84C1111.47 132.224 1111.27 131.008 1110.87 130.192C1110.49 129.36 1109.9 128.944 1109.1 128.944C1108.35 128.944 1107.77 129.312 1107.37 130.048C1106.99 130.784 1106.79 131.936 1106.79 133.504C1106.79 135.12 1106.99 136.344 1107.37 137.176C1107.77 138.008 1108.36 138.424 1109.15 138.424ZM1118.2 139.264C1117.66 139.264 1117.18 139.072 1116.78 138.688C1116.4 138.288 1116.21 137.816 1116.21 137.272C1116.21 136.712 1116.4 136.24 1116.78 135.856C1117.18 135.456 1117.66 135.256 1118.2 135.256C1118.76 135.256 1119.23 135.456 1119.62 135.856C1120 136.24 1120.19 136.712 1120.19 137.272C1120.19 137.816 1120 138.288 1119.62 138.688C1119.23 139.072 1118.76 139.264 1118.2 139.264ZM1128.6 139V138.472L1129.99 138.16C1130.34 138.08 1130.61 137.968 1130.78 137.824C1130.98 137.664 1131.13 137.456 1131.24 137.2L1136.14 125.608L1135.39 123.76C1135.9 123.744 1136.34 123.648 1136.69 123.472C1137.04 123.28 1137.3 123.072 1137.48 122.848C1137.66 122.608 1137.74 122.408 1137.74 122.248H1138.08L1144.37 137.512C1144.45 137.704 1144.58 137.848 1144.75 137.944C1144.93 138.04 1145.21 138.128 1145.59 138.208L1146.82 138.472V139H1138.42V138.472L1139.64 138.208C1139.99 138.128 1140.25 138.032 1140.41 137.92C1140.58 137.792 1140.67 137.624 1140.67 137.416C1140.67 137.336 1140.66 137.256 1140.62 137.176C1140.61 137.096 1140.58 137.008 1140.55 136.912L1136.28 126.208H1136.81L1132.15 137.224C1132.14 137.272 1132.12 137.32 1132.1 137.368C1132.1 137.416 1132.1 137.456 1132.1 137.488C1132.1 137.632 1132.16 137.76 1132.27 137.872C1132.38 137.984 1132.57 138.064 1132.82 138.112L1134.89 138.472V139H1128.6ZM1133.66 133.576V132.784H1140.5V133.576H1133.66ZM1147.65 139V138.592L1148.41 138.304C1148.64 138.224 1148.8 138.104 1148.89 137.944C1149.01 137.768 1149.06 137.568 1149.06 137.344V124.408C1149.06 124.072 1149.01 123.848 1148.89 123.736C1148.78 123.624 1148.62 123.544 1148.41 123.496L1147.65 123.304V122.872C1148.56 122.744 1149.33 122.624 1149.97 122.512C1150.61 122.4 1151.28 122.216 1151.97 121.96L1152.21 122.152C1152.09 122.328 1152.01 122.6 1151.94 122.968C1151.89 123.336 1151.87 123.736 1151.87 124.168V137.512C1151.87 137.736 1151.94 137.912 1152.09 138.04C1152.25 138.168 1152.39 138.256 1152.52 138.304L1153.29 138.592V139H1147.65ZM1154.37 139V138.592L1155.14 138.304C1155.36 138.224 1155.52 138.104 1155.62 137.944C1155.73 137.768 1155.79 137.568 1155.79 137.344V124.408C1155.79 124.072 1155.73 123.848 1155.62 123.736C1155.51 123.624 1155.35 123.544 1155.14 123.496L1154.37 123.304V122.872C1155.28 122.744 1156.06 122.624 1156.7 122.512C1157.34 122.4 1158 122.216 1158.69 121.96L1158.93 122.152C1158.82 122.328 1158.73 122.6 1158.67 122.968C1158.62 123.336 1158.6 123.736 1158.6 124.168V137.512C1158.6 137.736 1158.67 137.912 1158.81 138.04C1158.97 138.168 1159.12 138.256 1159.24 138.304L1160.01 138.592V139H1154.37ZM1184.21 139.36C1183.54 139.36 1182.9 139.24 1182.29 139C1181.69 138.76 1181.09 138.376 1180.52 137.848C1179.94 137.32 1179.37 136.632 1178.79 135.784C1178.39 135.176 1177.98 134.584 1177.57 134.008C1177.15 133.416 1176.69 132.928 1176.17 132.544C1175.68 132.144 1175.08 131.944 1174.37 131.944H1173.82V136.792C1173.82 137.288 1173.9 137.616 1174.06 137.776C1174.22 137.936 1174.57 138.08 1175.12 138.208L1176.34 138.472V139H1167.94V138.472L1169.17 138.208C1169.73 138.08 1170.08 137.936 1170.22 137.776C1170.38 137.616 1170.46 137.288 1170.46 136.792V125.056C1170.46 124.544 1170.38 124.208 1170.22 124.048C1170.08 123.888 1169.73 123.752 1169.17 123.64L1167.94 123.376V122.848H1174.66C1177.06 122.848 1178.93 123.232 1180.28 124C1181.64 124.768 1182.32 125.856 1182.32 127.264C1182.32 128 1182.09 128.672 1181.62 129.28C1181.17 129.872 1180.57 130.352 1179.82 130.72C1179.07 131.088 1178.25 131.32 1177.35 131.416V131.464C1178.09 131.496 1178.74 131.696 1179.32 132.064C1179.89 132.416 1180.41 132.872 1180.88 133.432C1181.36 133.976 1181.81 134.56 1182.22 135.184C1182.64 135.776 1183.05 136.328 1183.47 136.84C1183.89 137.352 1184.31 137.768 1184.74 138.088C1185.19 138.392 1185.65 138.544 1186.11 138.544V139.12C1185.47 139.28 1184.84 139.36 1184.21 139.36ZM1173.82 131.152H1174.66C1175.43 131.152 1176.13 131.024 1176.77 130.768C1177.43 130.496 1177.95 130.096 1178.33 129.568C1178.72 129.024 1178.91 128.336 1178.91 127.504C1178.91 126.24 1178.51 125.28 1177.71 124.624C1176.93 123.968 1175.81 123.64 1174.35 123.64H1173.82V131.152ZM1186.95 139V138.592L1187.72 138.304C1188.15 138.128 1188.37 137.808 1188.37 137.344V130.48C1188.37 130.144 1188.31 129.92 1188.2 129.808C1188.09 129.696 1187.93 129.616 1187.72 129.568L1186.95 129.376V128.944C1187.86 128.816 1188.64 128.696 1189.28 128.584C1189.92 128.472 1190.58 128.288 1191.27 128.032L1191.51 128.224C1191.4 128.4 1191.31 128.672 1191.25 129.04C1191.2 129.408 1191.17 129.808 1191.17 130.24V137.512C1191.17 137.736 1191.25 137.912 1191.39 138.04C1191.55 138.168 1191.69 138.256 1191.82 138.304L1192.59 138.592V139H1186.95ZM1189.73 125.92C1189.24 125.92 1188.81 125.752 1188.46 125.416C1188.13 125.064 1187.96 124.64 1187.96 124.144C1187.96 123.648 1188.13 123.232 1188.46 122.896C1188.81 122.544 1189.24 122.368 1189.73 122.368C1190.23 122.368 1190.65 122.544 1190.98 122.896C1191.33 123.232 1191.51 123.648 1191.51 124.144C1191.51 124.64 1191.33 125.064 1190.98 125.416C1190.65 125.752 1190.23 125.92 1189.73 125.92ZM1198.65 145.24C1197.78 145.24 1196.95 145.144 1196.15 144.952C1195.35 144.76 1194.69 144.464 1194.18 144.064C1193.69 143.664 1193.44 143.144 1193.44 142.504C1193.44 141.976 1193.63 141.52 1194.01 141.136C1194.41 140.752 1194.91 140.456 1195.5 140.248C1196.11 140.04 1196.72 139.936 1197.33 139.936L1198.14 140.08C1197.37 140.192 1196.83 140.408 1196.51 140.728C1196.21 141.064 1196.05 141.456 1196.05 141.904C1196.05 142.432 1196.34 142.92 1196.92 143.368C1197.51 143.816 1198.4 144.04 1199.58 144.04C1200.72 144.04 1201.66 143.856 1202.41 143.488C1203.18 143.12 1203.57 142.592 1203.57 141.904C1203.57 141.296 1203.29 140.824 1202.73 140.488C1202.17 140.152 1201.46 139.984 1200.61 139.984C1200.17 139.984 1199.71 140 1199.25 140.032C1198.78 140.064 1198.32 140.08 1197.85 140.08C1196.73 140.08 1195.81 139.888 1195.07 139.504C1194.33 139.12 1193.97 138.56 1193.97 137.824C1193.97 137.776 1193.97 137.736 1193.99 137.704C1194.02 137.656 1194.07 137.608 1194.13 137.56C1194.58 137.24 1194.97 136.896 1195.31 136.528C1195.66 136.16 1195.97 135.792 1196.25 135.424V135.304C1195.57 134.936 1195.07 134.448 1194.73 133.84C1194.41 133.216 1194.25 132.616 1194.25 132.04C1194.25 130.904 1194.65 129.976 1195.45 129.256C1196.25 128.536 1197.31 128.176 1198.62 128.176C1199.09 128.176 1199.51 128.232 1199.89 128.344C1200.29 128.44 1200.67 128.552 1201.02 128.68C1201.33 128.776 1201.61 128.864 1201.89 128.944C1202.17 129.024 1202.45 129.064 1202.73 129.064C1203.19 129.064 1203.42 128.92 1203.42 128.632C1203.42 128.52 1203.4 128.4 1203.35 128.272C1203.3 128.128 1203.23 127.984 1203.13 127.84C1203.05 127.712 1202.98 127.584 1202.92 127.456C1202.85 127.328 1202.82 127.184 1202.82 127.024C1202.82 126.672 1202.93 126.416 1203.13 126.256C1203.34 126.096 1203.58 126.016 1203.85 126.016C1204.22 126.016 1204.51 126.16 1204.72 126.448C1204.94 126.736 1205.05 127.088 1205.05 127.504C1205.05 128.416 1204.89 129.064 1204.55 129.448C1204.21 129.832 1203.8 130.024 1203.3 130.024C1202.98 130.024 1202.65 129.952 1202.32 129.808V129.952C1202.54 130.352 1202.7 130.712 1202.8 131.032C1202.89 131.352 1202.94 131.728 1202.94 132.16C1202.94 132.832 1202.77 133.448 1202.44 134.008C1202.1 134.568 1201.62 135.016 1201 135.352C1200.37 135.688 1199.62 135.856 1198.74 135.856C1198.01 135.856 1197.42 135.936 1196.99 136.096C1196.57 136.256 1196.37 136.464 1196.37 136.72C1196.37 136.976 1196.49 137.168 1196.75 137.296C1197.01 137.424 1197.33 137.488 1197.73 137.488C1198.09 137.488 1198.57 137.472 1199.17 137.44C1199.78 137.408 1200.33 137.392 1200.83 137.392C1201.6 137.392 1202.33 137.496 1203.04 137.704C1203.74 137.912 1204.32 138.264 1204.77 138.76C1205.21 139.24 1205.44 139.904 1205.44 140.752C1205.44 141.76 1205.13 142.592 1204.53 143.248C1203.92 143.92 1203.1 144.416 1202.08 144.736C1201.05 145.072 1199.91 145.24 1198.65 145.24ZM1198.72 134.92C1199.18 134.92 1199.54 134.696 1199.8 134.248C1200.05 133.784 1200.18 133.064 1200.18 132.088C1200.18 131.096 1200.05 130.344 1199.77 129.832C1199.52 129.32 1199.13 129.064 1198.62 129.064C1198.16 129.064 1197.8 129.288 1197.54 129.736C1197.29 130.184 1197.16 130.88 1197.16 131.824C1197.16 132.848 1197.29 133.624 1197.54 134.152C1197.81 134.664 1198.21 134.92 1198.72 134.92ZM1213.44 139V138.592L1214.2 138.304C1214.43 138.224 1214.59 138.104 1214.68 137.944C1214.8 137.768 1214.85 137.568 1214.85 137.344V132.328C1214.85 131.624 1214.67 131.088 1214.3 130.72C1213.95 130.336 1213.43 130.144 1212.74 130.144C1212.05 130.144 1211.52 130.36 1211.13 130.792C1210.76 131.208 1210.58 131.744 1210.58 132.4L1210.22 129.88H1210.56C1211.04 129.656 1211.52 129.416 1212 129.16C1212.49 128.888 1212.99 128.608 1213.48 128.32C1213.56 128.272 1213.66 128.24 1213.77 128.224C1213.88 128.192 1213.99 128.176 1214.08 128.176C1215.22 128.176 1216.1 128.464 1216.72 129.04C1217.35 129.6 1217.66 130.424 1217.66 131.512V137.512C1217.66 137.736 1217.73 137.912 1217.88 138.04C1218.04 138.168 1218.18 138.256 1218.31 138.304L1219.08 138.592V139H1213.44ZM1206.36 139V138.592L1207.12 138.304C1207.35 138.224 1207.51 138.104 1207.6 137.944C1207.72 137.768 1207.77 137.568 1207.77 137.344V124.408C1207.77 124.072 1207.72 123.848 1207.6 123.736C1207.49 123.624 1207.33 123.544 1207.12 123.496L1206.36 123.304V122.872C1207.27 122.744 1208.04 122.624 1208.68 122.512C1209.32 122.4 1209.99 122.216 1210.68 121.96L1210.92 122.152C1210.8 122.328 1210.72 122.6 1210.65 122.968C1210.6 123.336 1210.58 123.736 1210.58 124.168V137.512C1210.58 137.736 1210.65 137.912 1210.8 138.04C1210.96 138.168 1211.1 138.256 1211.23 138.304L1212 138.592V139H1206.36ZM1223.74 139.192C1222.14 139.192 1221.34 138.224 1221.34 136.288V129.184H1219.8V128.536C1220.89 128.392 1221.73 128.024 1222.32 127.432C1222.92 126.824 1223.32 125.976 1223.52 124.888H1224.15V128.392H1226.91L1226.67 129.184H1224.15V136.096C1224.15 136.704 1224.24 137.112 1224.44 137.32C1224.63 137.512 1224.88 137.608 1225.18 137.608C1225.4 137.608 1225.66 137.552 1225.95 137.44C1226.25 137.328 1226.56 137.184 1226.86 137.008L1227.2 137.632C1226.56 138.144 1225.93 138.536 1225.32 138.808C1224.72 139.064 1224.19 139.192 1223.74 139.192ZM1232.45 139.192C1231.66 139.192 1230.93 139.08 1230.24 138.856C1229.55 138.616 1229.02 138.392 1228.65 138.184C1228.69 137.72 1228.7 137.192 1228.7 136.6C1228.72 136.008 1228.66 135.464 1228.53 134.968H1229.45C1229.54 135.592 1229.73 136.168 1230 136.696C1230.29 137.224 1230.65 137.648 1231.08 137.968C1231.53 138.288 1232.03 138.448 1232.59 138.448C1233.07 138.448 1233.45 138.312 1233.74 138.04C1234.05 137.768 1234.2 137.392 1234.2 136.912C1234.2 136.528 1234.13 136.216 1233.98 135.976C1233.84 135.72 1233.57 135.488 1233.19 135.28C1232.82 135.056 1232.29 134.808 1231.58 134.536C1230.62 134.168 1229.93 133.728 1229.49 133.216C1229.06 132.688 1228.85 131.992 1228.85 131.128C1228.85 130.6 1229.01 130.112 1229.33 129.664C1229.66 129.216 1230.12 128.856 1230.69 128.584C1231.29 128.296 1231.97 128.152 1232.76 128.152C1233.29 128.152 1233.72 128.2 1234.05 128.296C1234.39 128.392 1234.74 128.52 1235.11 128.68H1235.73C1235.67 129.272 1235.65 129.784 1235.69 130.216C1235.73 130.648 1235.81 131.12 1235.9 131.632H1235.18C1234.94 130.736 1234.6 130.056 1234.15 129.592C1233.7 129.112 1233.15 128.872 1232.49 128.872C1232.06 128.872 1231.71 129 1231.44 129.256C1231.18 129.496 1231.05 129.816 1231.05 130.216C1231.05 130.6 1231.13 130.912 1231.29 131.152C1231.45 131.392 1231.72 131.6 1232.09 131.776C1232.45 131.952 1232.94 132.144 1233.55 132.352C1234.41 132.656 1235.12 133.064 1235.66 133.576C1236.21 134.072 1236.48 134.832 1236.48 135.856C1236.48 136.4 1236.33 136.928 1236.05 137.44C1235.76 137.952 1235.31 138.376 1234.7 138.712C1234.11 139.032 1233.36 139.192 1232.45 139.192ZM1261.28 139.36C1260.61 139.36 1259.97 139.24 1259.36 139C1258.75 138.76 1258.16 138.376 1257.58 137.848C1257.01 137.32 1256.43 136.632 1255.85 135.784C1255.45 135.176 1255.05 134.584 1254.63 134.008C1254.21 133.416 1253.75 132.928 1253.24 132.544C1252.74 132.144 1252.14 131.944 1251.44 131.944H1250.89V136.792C1250.89 137.288 1250.97 137.616 1251.13 137.776C1251.29 137.936 1251.64 138.08 1252.18 138.208L1253.41 138.472V139H1245.01V138.472L1246.23 138.208C1246.79 138.08 1247.14 137.936 1247.29 137.776C1247.45 137.616 1247.53 137.288 1247.53 136.792V125.056C1247.53 124.544 1247.45 124.208 1247.29 124.048C1247.14 123.888 1246.79 123.752 1246.23 123.64L1245.01 123.376V122.848H1251.73C1254.13 122.848 1256 123.232 1257.34 124C1258.7 124.768 1259.38 125.856 1259.38 127.264C1259.38 128 1259.15 128.672 1258.69 129.28C1258.24 129.872 1257.64 130.352 1256.89 130.72C1256.13 131.088 1255.31 131.32 1254.41 131.416V131.464C1255.15 131.496 1255.81 131.696 1256.38 132.064C1256.96 132.416 1257.48 132.872 1257.94 133.432C1258.42 133.976 1258.87 134.56 1259.29 135.184C1259.7 135.776 1260.12 136.328 1260.53 136.84C1260.95 137.352 1261.37 137.768 1261.81 138.088C1262.25 138.392 1262.71 138.544 1263.17 138.544V139.12C1262.53 139.28 1261.9 139.36 1261.28 139.36ZM1250.89 131.152H1251.73C1252.49 131.152 1253.2 131.024 1253.84 130.768C1254.49 130.496 1255.01 130.096 1255.4 129.568C1255.78 129.024 1255.97 128.336 1255.97 127.504C1255.97 126.24 1255.57 125.28 1254.77 124.624C1253.99 123.968 1252.87 123.64 1251.41 123.64H1250.89V131.152ZM1268.59 139.192C1267.56 139.192 1266.65 138.952 1265.85 138.472C1265.07 137.992 1264.44 137.344 1263.98 136.528C1263.53 135.712 1263.31 134.808 1263.31 133.816C1263.31 132.696 1263.55 131.712 1264.03 130.864C1264.52 130.016 1265.19 129.352 1266.02 128.872C1266.87 128.392 1267.82 128.152 1268.88 128.152C1269.72 128.152 1270.46 128.352 1271.08 128.752C1271.72 129.136 1272.22 129.672 1272.57 130.36C1272.92 131.032 1273.1 131.792 1273.1 132.64C1273.1 132.8 1273.05 132.944 1272.96 133.072C1272.88 133.184 1272.74 133.24 1272.55 133.24H1264.77V132.376L1269.98 132.16C1270.2 132.16 1270.32 131.992 1270.32 131.656C1270.32 130.808 1270.17 130.144 1269.88 129.664C1269.6 129.168 1269.21 128.92 1268.73 128.92C1268 128.92 1267.42 129.32 1267 130.12C1266.59 130.92 1266.38 131.968 1266.38 133.264C1266.38 134.16 1266.54 134.92 1266.86 135.544C1267.18 136.168 1267.6 136.64 1268.13 136.96C1268.66 137.28 1269.24 137.44 1269.86 137.44C1270.8 137.44 1271.75 137.04 1272.69 136.24L1273.1 136.624C1272.46 137.504 1271.76 138.152 1271.01 138.568C1270.26 138.984 1269.45 139.192 1268.59 139.192ZM1278.57 139.192C1277.79 139.192 1277.05 139.08 1276.36 138.856C1275.68 138.616 1275.15 138.392 1274.78 138.184C1274.81 137.72 1274.83 137.192 1274.83 136.6C1274.84 136.008 1274.79 135.464 1274.66 134.968H1275.57C1275.67 135.592 1275.85 136.168 1276.12 136.696C1276.41 137.224 1276.77 137.648 1277.2 137.968C1277.65 138.288 1278.16 138.448 1278.72 138.448C1279.2 138.448 1279.58 138.312 1279.87 138.04C1280.17 137.768 1280.32 137.392 1280.32 136.912C1280.32 136.528 1280.25 136.216 1280.11 135.976C1279.96 135.72 1279.7 135.488 1279.32 135.28C1278.95 135.056 1278.41 134.808 1277.71 134.536C1276.75 134.168 1276.05 133.728 1275.62 133.216C1275.19 132.688 1274.97 131.992 1274.97 131.128C1274.97 130.6 1275.13 130.112 1275.45 129.664C1275.79 129.216 1276.24 128.856 1276.82 128.584C1277.41 128.296 1278.1 128.152 1278.88 128.152C1279.41 128.152 1279.84 128.2 1280.18 128.296C1280.52 128.392 1280.87 128.52 1281.24 128.68H1281.86C1281.8 129.272 1281.78 129.784 1281.81 130.216C1281.86 130.648 1281.93 131.12 1282.03 131.632H1281.31C1281.07 130.736 1280.72 130.056 1280.28 129.592C1279.83 129.112 1279.28 128.872 1278.62 128.872C1278.19 128.872 1277.84 129 1277.56 129.256C1277.31 129.496 1277.18 129.816 1277.18 130.216C1277.18 130.6 1277.26 130.912 1277.42 131.152C1277.58 131.392 1277.84 131.6 1278.21 131.776C1278.58 131.952 1279.07 132.144 1279.68 132.352C1280.54 132.656 1281.24 133.064 1281.79 133.576C1282.33 134.072 1282.6 134.832 1282.6 135.856C1282.6 136.4 1282.46 136.928 1282.17 137.44C1281.88 137.952 1281.44 138.376 1280.83 138.712C1280.24 139.032 1279.48 139.192 1278.57 139.192ZM1289.45 139.192C1288.42 139.192 1287.51 138.952 1286.71 138.472C1285.93 137.992 1285.3 137.344 1284.84 136.528C1284.39 135.712 1284.17 134.808 1284.17 133.816C1284.17 132.696 1284.41 131.712 1284.89 130.864C1285.38 130.016 1286.05 129.352 1286.88 128.872C1287.73 128.392 1288.68 128.152 1289.73 128.152C1290.58 128.152 1291.32 128.352 1291.94 128.752C1292.58 129.136 1293.08 129.672 1293.43 130.36C1293.78 131.032 1293.96 131.792 1293.96 132.64C1293.96 132.8 1293.91 132.944 1293.81 133.072C1293.73 133.184 1293.6 133.24 1293.41 133.24H1285.63V132.376L1290.84 132.16C1291.06 132.16 1291.17 131.992 1291.17 131.656C1291.17 130.808 1291.03 130.144 1290.74 129.664C1290.45 129.168 1290.07 128.92 1289.59 128.92C1288.85 128.92 1288.28 129.32 1287.86 130.12C1287.45 130.92 1287.24 131.968 1287.24 133.264C1287.24 134.16 1287.4 134.92 1287.72 135.544C1288.04 136.168 1288.46 136.64 1288.99 136.96C1289.52 137.28 1290.09 137.44 1290.72 137.44C1291.66 137.44 1292.61 137.04 1293.55 136.24L1293.96 136.624C1293.32 137.504 1292.62 138.152 1291.87 138.568C1291.12 138.984 1290.31 139.192 1289.45 139.192ZM1295.28 139V138.592L1296.05 138.304C1296.29 138.208 1296.45 138.088 1296.55 137.944C1296.65 137.8 1296.69 137.6 1296.69 137.344V130.48C1296.69 130.144 1296.64 129.92 1296.53 129.808C1296.41 129.696 1296.25 129.616 1296.05 129.568L1295.28 129.376V128.944C1295.9 128.848 1296.43 128.768 1296.86 128.704C1297.31 128.624 1297.73 128.536 1298.13 128.44C1298.53 128.328 1298.97 128.192 1299.43 128.032L1299.67 128.224C1299.56 128.4 1299.47 128.672 1299.41 129.04C1299.36 129.408 1299.33 129.808 1299.33 130.24V130.48L1299.5 131.008V137.512C1299.5 137.688 1299.57 137.84 1299.69 137.968C1299.82 138.096 1300.01 138.208 1300.27 138.304L1301.16 138.592V139H1295.28ZM1299.5 132.784L1299.09 130.336L1301.95 128.56C1302.21 128.4 1302.42 128.296 1302.6 128.248C1302.77 128.2 1302.94 128.176 1303.1 128.176C1303.5 128.176 1303.86 128.344 1304.18 128.68C1304.52 129.016 1304.69 129.432 1304.69 129.928C1304.69 130.328 1304.53 130.696 1304.21 131.032C1303.9 131.352 1303.49 131.512 1302.98 131.512C1302.68 131.512 1302.41 131.44 1302.19 131.296C1301.98 131.152 1301.8 131 1301.64 130.84C1301.53 130.712 1301.41 130.592 1301.28 130.48C1301.15 130.352 1301.01 130.288 1300.85 130.288C1300.7 130.288 1300.53 130.344 1300.32 130.456C1300.11 130.568 1299.92 130.808 1299.74 131.176C1299.58 131.528 1299.5 132.064 1299.5 132.784ZM1310.8 139.192L1306.5 129.472C1306.44 129.328 1306.35 129.224 1306.24 129.16C1306.13 129.08 1305.97 129.016 1305.78 128.968L1305.04 128.8V128.392H1310.97V128.8L1310.46 128.92C1310.21 128.984 1309.99 129.096 1309.81 129.256C1309.65 129.416 1309.64 129.656 1309.77 129.976L1312.45 136.336H1311.81L1314.42 129.76C1314.52 129.536 1314.53 129.368 1314.47 129.256C1314.42 129.128 1314.26 129.04 1313.99 128.992L1312.91 128.8V128.392H1317.33V128.8L1316.34 129.088C1316.13 129.152 1315.98 129.224 1315.89 129.304C1315.79 129.368 1315.71 129.472 1315.65 129.616L1311.52 139.192H1310.8ZM1322.73 139.192C1321.7 139.192 1320.79 138.952 1319.99 138.472C1319.21 137.992 1318.58 137.344 1318.12 136.528C1317.67 135.712 1317.45 134.808 1317.45 133.816C1317.45 132.696 1317.69 131.712 1318.17 130.864C1318.66 130.016 1319.33 129.352 1320.16 128.872C1321.01 128.392 1321.96 128.152 1323.02 128.152C1323.86 128.152 1324.6 128.352 1325.22 128.752C1325.86 129.136 1326.36 129.672 1326.71 130.36C1327.06 131.032 1327.24 131.792 1327.24 132.64C1327.24 132.8 1327.19 132.944 1327.1 133.072C1327.02 133.184 1326.88 133.24 1326.69 133.24H1318.91V132.376L1324.12 132.16C1324.34 132.16 1324.46 131.992 1324.46 131.656C1324.46 130.808 1324.31 130.144 1324.02 129.664C1323.74 129.168 1323.35 128.92 1322.87 128.92C1322.14 128.92 1321.56 129.32 1321.14 130.12C1320.73 130.92 1320.52 131.968 1320.52 133.264C1320.52 134.16 1320.68 134.92 1321 135.544C1321.32 136.168 1321.74 136.64 1322.27 136.96C1322.8 137.28 1323.38 137.44 1324 137.44C1324.94 137.44 1325.89 137.04 1326.83 136.24L1327.24 136.624C1326.6 137.504 1325.9 138.152 1325.15 138.568C1324.4 138.984 1323.59 139.192 1322.73 139.192ZM1333.93 139.192C1332.73 139.192 1331.74 138.944 1330.95 138.448C1330.19 137.952 1329.61 137.304 1329.23 136.504C1328.86 135.688 1328.67 134.816 1328.67 133.888C1328.67 133.184 1328.78 132.496 1328.99 131.824C1329.21 131.152 1329.54 130.544 1329.97 130C1330.42 129.44 1330.98 129 1331.65 128.68C1332.32 128.344 1333.11 128.176 1334.03 128.176C1334.55 128.176 1335.06 128.232 1335.54 128.344C1336.02 128.456 1336.43 128.6 1336.76 128.776V124.408C1336.76 124.072 1336.71 123.848 1336.59 123.736C1336.48 123.624 1336.32 123.544 1336.11 123.496L1335.35 123.304V122.872C1336.26 122.744 1337.03 122.624 1337.67 122.512C1338.31 122.4 1338.98 122.216 1339.67 121.96L1339.91 122.152C1339.79 122.328 1339.71 122.6 1339.64 122.968C1339.59 123.336 1339.57 123.736 1339.57 124.168V136.696C1339.57 137.224 1339.71 137.6 1339.98 137.824C1340.25 138.048 1340.71 138.16 1341.35 138.16V138.784C1340.66 138.8 1340.01 138.856 1339.4 138.952C1338.81 139.032 1338.16 139.112 1337.46 139.192L1337.22 139.072L1337.03 137.752H1336.93L1334.84 138.928C1334.73 138.992 1334.59 139.048 1334.41 139.096C1334.25 139.16 1334.09 139.192 1333.93 139.192ZM1334.7 137.488C1335.35 137.488 1335.86 137.28 1336.21 136.864C1336.58 136.448 1336.76 135.96 1336.76 135.4V132.112C1336.76 131.552 1336.65 131.04 1336.43 130.576C1336.2 130.096 1335.91 129.72 1335.54 129.448C1335.19 129.16 1334.79 129.016 1334.36 129.016C1333.77 129.016 1333.27 129.208 1332.87 129.592C1332.49 129.96 1332.2 130.448 1332.01 131.056C1331.83 131.648 1331.75 132.288 1331.75 132.976C1331.75 133.744 1331.85 134.472 1332.06 135.16C1332.27 135.848 1332.59 136.408 1333.02 136.84C1333.47 137.272 1334.03 137.488 1334.7 137.488ZM1345.05 139.264C1344.51 139.264 1344.04 139.072 1343.64 138.688C1343.25 138.288 1343.06 137.816 1343.06 137.272C1343.06 136.712 1343.25 136.24 1343.64 135.856C1344.04 135.456 1344.51 135.256 1345.05 135.256C1345.61 135.256 1346.08 135.456 1346.47 135.856C1346.85 136.24 1347.04 136.712 1347.04 137.272C1347.04 137.816 1346.85 138.288 1346.47 138.688C1346.08 139.072 1345.61 139.264 1345.05 139.264Z" fill="#F6EBDC"/>
</svg>
