<svg width="33" height="32" viewBox="0 0 33 32" fill="none" xmlns="http://www.w3.org/2000/svg">
<path d="M12.0267 27.3333C12.3147 28.2959 12.9056 29.1399 13.7114 29.7399C14.5173 30.3399 15.4953 30.664 16.5 30.664C17.5047 30.664 18.4827 30.3399 19.2886 29.7399C20.0944 29.1399 20.6853 28.2959 20.9733 27.3333H12.0267ZM4.5 26H28.5V22L25.8333 18V11.3333C25.8333 10.1077 25.5919 8.89399 25.1229 7.76162C24.6538 6.62925 23.9663 5.60035 23.0997 4.73367C22.233 3.86699 21.2041 3.1795 20.0717 2.71046C18.9393 2.24141 17.7257 2 16.5 2C15.2743 2 14.0607 2.24141 12.9283 2.71046C11.7959 3.1795 10.767 3.86699 9.90034 4.73367C9.03366 5.60035 8.34617 6.62925 7.87712 7.76162C7.40808 8.89399 7.16667 10.1077 7.16667 11.3333V18L4.5 22V26Z" fill="#1B4D56"/>
<circle cx="23.5" cy="5" r="5" fill="#DF9146"/>
</svg>
